<?xml version="1.0" encoding="UTF-8" standalone="no"?>
<!-- Created with Inkscape (http://www.inkscape.org/) -->

<svg
   xmlns:dc="http://purl.org/dc/elements/1.1/"
   xmlns:cc="http://creativecommons.org/ns#"
   xmlns:rdf="http://www.w3.org/1999/02/22-rdf-syntax-ns#"
   xmlns:svg="http://www.w3.org/2000/svg"
   xmlns="http://www.w3.org/2000/svg"
   xmlns:sodipodi="http://sodipodi.sourceforge.net/DTD/sodipodi-0.dtd"
   xmlns:inkscape="http://www.inkscape.org/namespaces/inkscape"
   width="744.09448819"
   height="1052.3622047"
   id="svg3583"
   version="1.1"
   inkscape:version="0.91 r13725"
   sodipodi:docname="mri-seq-ge-cart.svg"
   inkscape:export-filename="H:\Publications\Thesis\fig\mri-seq-ge-cart.png"
   inkscape:export-xdpi="300.09375"
   inkscape:export-ydpi="300.09375">
  <defs
     id="defs3585">
    <marker
       inkscape:isstock="true"
       style="overflow:visible;"
       id="marker6975"
       refX="0.0"
       refY="0.0"
       orient="auto"
       inkscape:stockid="Arrow1Mend">
      <path
         transform="scale(0.4) rotate(180) translate(10,0)"
         style="fill-rule:evenodd;stroke:#000000;stroke-width:1pt;stroke-opacity:1;fill:#000000;fill-opacity:1"
         d="M 0.0,0.0 L 5.0,-5.0 L -12.5,0.0 L 5.0,5.0 L 0.0,0.0 z "
         id="path6977" />
    </marker>
    <marker
       inkscape:stockid="Arrow1Mend"
       orient="auto"
       refY="0.0"
       refX="0.0"
       id="Arrow1Mend"
       style="overflow:visible;"
       inkscape:isstock="true"
       inkscape:collect="always">
      <path
         id="path4993"
         d="M 0.0,0.0 L 5.0,-5.0 L -12.5,0.0 L 5.0,5.0 L 0.0,0.0 z "
         style="fill-rule:evenodd;stroke:#000000;stroke-width:1pt;stroke-opacity:1;fill:#000000;fill-opacity:1"
         transform="scale(0.4) rotate(180) translate(10,0)" />
    </marker>
    <marker
       inkscape:stockid="Arrow1Mstart"
       orient="auto"
       refY="0.0"
       refX="0.0"
       id="Arrow1Mstart"
       style="overflow:visible"
       inkscape:isstock="true">
      <path
         id="path4990"
         d="M 0.0,0.0 L 5.0,-5.0 L -12.5,0.0 L 5.0,5.0 L 0.0,0.0 z "
         style="fill-rule:evenodd;stroke:#000000;stroke-width:1pt;stroke-opacity:1;fill:#000000;fill-opacity:1"
         transform="scale(0.4) translate(10,0)" />
    </marker>
    <marker
       inkscape:stockid="Arrow1Mend"
       orient="auto"
       refY="0.0"
       refX="0.0"
       id="marker9031"
       style="overflow:visible;"
       inkscape:isstock="true">
      <path
         id="path9033"
         d="M 0.0,0.0 L 5.0,-5.0 L -12.5,0.0 L 5.0,5.0 L 0.0,0.0 z "
         style="fill-rule:evenodd;stroke:#000000;stroke-width:1pt;stroke-opacity:1;fill:#000000;fill-opacity:1"
         transform="scale(0.4) rotate(180) translate(10,0)" />
    </marker>
    <marker
       inkscape:isstock="true"
       style="overflow:visible;"
       id="marker8971"
       refX="0.0"
       refY="0.0"
       orient="auto"
       inkscape:stockid="Arrow1Mend">
      <path
         transform="scale(0.4) rotate(180) translate(10,0)"
         style="fill-rule:evenodd;stroke:#000000;stroke-width:1pt;stroke-opacity:1;fill:#000000;fill-opacity:1"
         d="M 0.0,0.0 L 5.0,-5.0 L -12.5,0.0 L 5.0,5.0 L 0.0,0.0 z "
         id="path8973" />
    </marker>
    <marker
       inkscape:stockid="Arrow1Send"
       orient="auto"
       refY="0.0"
       refX="0.0"
       id="Arrow1Send"
       style="overflow:visible;"
       inkscape:isstock="true">
      <path
         id="path7289"
         d="M 0.0,0.0 L 5.0,-5.0 L -12.5,0.0 L 5.0,5.0 L 0.0,0.0 z "
         style="fill-rule:evenodd;stroke:#000000;stroke-width:1pt;stroke-opacity:1;fill:#000000;fill-opacity:1"
         transform="scale(0.2) rotate(180) translate(6,0)" />
    </marker>
    <marker
       inkscape:stockid="Arrow1Lend"
       orient="auto"
       refY="0.0"
       refX="0.0"
       id="Arrow1Lend"
       style="overflow:visible;">
      <path
         id="path4680"
         d="M 0.0,0.0 L 5.0,-5.0 L -12.5,0.0 L 5.0,5.0 L 0.0,0.0 z "
         style="fill-rule:evenodd;stroke:#000000;stroke-width:1.0pt;"
         transform="scale(0.8) rotate(180) translate(12.5,0)" />
    </marker>
    <marker
       inkscape:stockid="Arrow1Send"
       orient="auto"
       refY="0"
       refX="0"
       id="Arrow1Send-0"
       style="overflow:visible"
       inkscape:isstock="true">
      <path
         inkscape:connector-curvature="0"
         id="path7289-3"
         d="M 0,0 5,-5 -12.5,0 5,5 0,0 Z"
         style="fill:#000000;fill-opacity:1;fill-rule:evenodd;stroke:#000000;stroke-width:1pt;stroke-opacity:1"
         transform="matrix(-0.2,0,0,-0.2,-1.2,0)" />
    </marker>
    <marker
       inkscape:stockid="Arrow1Send"
       orient="auto"
       refY="0"
       refX="0"
       id="Arrow1Send-0-7"
       style="overflow:visible"
       inkscape:isstock="true">
      <path
         inkscape:connector-curvature="0"
         id="path7289-3-2"
         d="M 0,0 5,-5 -12.5,0 5,5 0,0 Z"
         style="fill:#000000;fill-opacity:1;fill-rule:evenodd;stroke:#000000;stroke-width:1pt;stroke-opacity:1"
         transform="matrix(-0.2,0,0,-0.2,-1.2,0)" />
    </marker>
    <marker
       inkscape:stockid="Arrow1Send"
       orient="auto"
       refY="0"
       refX="0"
       id="Arrow1Send-08"
       style="overflow:visible"
       inkscape:isstock="true">
      <path
         inkscape:connector-curvature="0"
         id="path7289-7"
         d="M 0,0 5,-5 -12.5,0 5,5 0,0 Z"
         style="fill:#000000;fill-opacity:1;fill-rule:evenodd;stroke:#000000;stroke-width:1pt;stroke-opacity:1"
         transform="matrix(-0.2,0,0,-0.2,-1.2,0)" />
    </marker>
    <marker
       inkscape:isstock="true"
       style="overflow:visible"
       id="marker6975-4"
       refX="0"
       refY="0"
       orient="auto"
       inkscape:stockid="Arrow1Mend">
      <path
         inkscape:connector-curvature="0"
         transform="matrix(-0.4,0,0,-0.4,-4,0)"
         style="fill:#000000;fill-opacity:1;fill-rule:evenodd;stroke:#000000;stroke-width:1pt;stroke-opacity:1"
         d="M 0,0 5,-5 -12.5,0 5,5 0,0 Z"
         id="path6977-6" />
    </marker>
    <marker
       inkscape:isstock="true"
       style="overflow:visible"
       id="marker6975-4-5"
       refX="0"
       refY="0"
       orient="auto"
       inkscape:stockid="Arrow1Mend">
      <path
         inkscape:connector-curvature="0"
         transform="matrix(-0.4,0,0,-0.4,-4,0)"
         style="fill:#000000;fill-opacity:1;fill-rule:evenodd;stroke:#000000;stroke-width:1pt;stroke-opacity:1"
         d="M 0,0 5,-5 -12.5,0 5,5 0,0 Z"
         id="path6977-6-2" />
    </marker>
  </defs>
  <sodipodi:namedview
     id="base"
     pagecolor="#ffffff"
     bordercolor="#666666"
     borderopacity="1.0"
     inkscape:pageopacity="0.0"
     inkscape:pageshadow="2"
     inkscape:zoom="3.0506878"
     inkscape:cx="220.65845"
     inkscape:cy="187.40322"
     inkscape:document-units="px"
     inkscape:current-layer="layer1"
     showgrid="true"
     inkscape:snap-grids="true"
     inkscape:window-width="1600"
     inkscape:window-height="1138"
     inkscape:window-x="1592"
     inkscape:window-y="-8"
     inkscape:window-maximized="1">
    <inkscape:grid
       type="xygrid"
       id="grid3591" />
  </sodipodi:namedview>
  <metadata
     id="metadata3588">
    <rdf:RDF>
      <cc:Work
         rdf:about="">
        <dc:format>image/svg+xml</dc:format>
        <dc:type
           rdf:resource="http://purl.org/dc/dcmitype/StillImage" />
        <dc:title />
      </cc:Work>
    </rdf:RDF>
  </metadata>
  <g
     inkscape:label="Layer 1"
     inkscape:groupmode="layer"
     id="layer1">
    <path
       sodipodi:nodetypes="cccc"
       inkscape:connector-curvature="0"
       id="path3428-6"
       d="m 90.518999,562.90887 -9.972306,10e-6 0,393.90661 9.972306,0"
       style="fill:none;stroke:#000000;stroke-width:1.09338665;stroke-linecap:butt;stroke-linejoin:miter;stroke-miterlimit:4;stroke-dasharray:none;stroke-opacity:1" />
    <path
       style="fill:none;stroke:#000000;stroke-width:1.01680553;stroke-miterlimit:4;stroke-dasharray:none;stroke-dashoffset:0;stroke-opacity:1"
       d="m 95.022385,611.85721 c 1.81857,-0.0812 3.63714,-0.19272 5.455705,-0.68046 1.81857,-0.48775 3.63714,-1.17753 5.4557,-4.07521 1.81858,-2.89766 3.63715,-9.62225 5.45571,-20.47833 1.81857,-10.85609 3.63714,-10.85671 5.45572,0 1.81857,10.8567 3.63714,17.57561 5.4557,20.47833 1.81857,2.90275 3.63714,3.58659 5.45572,4.07521 1.81857,0.48861 3.63713,0.59928 5.4557,0.68046"
       title="1/cosh(x)"
       id="path3997-2"
       inkscape:connector-curvature="0" />
    <path
       style="fill:none;fill-rule:evenodd;stroke:#000000;stroke-width:1px;stroke-linecap:butt;stroke-linejoin:miter;stroke-opacity:1"
       d="m 80,692.36218 5,-15 5,-15 25,0 25,0 5,15 5,15 5,15 5,15 10,0 10,0 5,-15 5,-15"
       id="path5358"
       inkscape:connector-curvature="0" />
    <path
       style="fill:none;fill-rule:evenodd;stroke:#000000;stroke-width:1px;stroke-linecap:butt;stroke-linejoin:miter;stroke-opacity:1"
       d="m 140,852.36218 5,15 5,15 30,0 5,-15 5,-15"
       id="path5362"
       inkscape:connector-curvature="0" />
    <path
       style="fill:none;fill-rule:evenodd;stroke:#000000;stroke-width:1px;stroke-linecap:butt;stroke-linejoin:miter;stroke-opacity:0.92941177"
       d="m 148,877.36218 34,0"
       id="path5366"
       inkscape:connector-curvature="0" />
    <path
       style="fill:none;fill-rule:evenodd;stroke:#000000;stroke-width:1px;stroke-linecap:butt;stroke-linejoin:miter;stroke-opacity:0.85882354"
       d="m 147,872.36218 36,0"
       id="path5368"
       inkscape:connector-curvature="0" />
    <path
       style="fill:none;fill-rule:evenodd;stroke:#000000;stroke-width:1px;stroke-linecap:butt;stroke-linejoin:miter;stroke-opacity:0.78823531"
       d="m 145,867.36218 40,0"
       id="path5370"
       inkscape:connector-curvature="0" />
    <path
       style="fill:none;fill-rule:evenodd;stroke:#000000;stroke-width:1px;stroke-linecap:butt;stroke-linejoin:miter;stroke-opacity:0.71764708"
       d="m 143,862.36218 44,0"
       id="path5372"
       inkscape:connector-curvature="0" />
    <path
       style="fill:none;fill-rule:evenodd;stroke:#000000;stroke-width:1px;stroke-linecap:butt;stroke-linejoin:miter;stroke-opacity:0.64705884"
       d="m 142,857.36218 46,0"
       id="path5374"
       inkscape:connector-curvature="0" />
    <path
       style="fill:none;fill-rule:evenodd;stroke:#000000;stroke-width:1px;stroke-linecap:butt;stroke-linejoin:miter;stroke-opacity:0.15294118"
       d="m 140,852.36218 5,-15 5,-15 30,0 5,15 5,15"
       id="path5376"
       inkscape:connector-curvature="0" />
    <path
       style="fill:none;fill-rule:evenodd;stroke:#000000;stroke-width:1px;stroke-linecap:butt;stroke-linejoin:miter;stroke-opacity:0.57647061"
       d="m 140,852.36218 50,0"
       id="path5392"
       inkscape:connector-curvature="0" />
    <path
       style="fill:none;fill-rule:evenodd;stroke:#000000;stroke-width:0.9198662;stroke-linecap:butt;stroke-linejoin:miter;stroke-miterlimit:4;stroke-dasharray:0.91986621, 0.91986621;stroke-dashoffset:0;stroke-opacity:1"
       d="m 80,852.36218 275,0"
       id="path5394"
       inkscape:connector-curvature="0" />
    <path
       style="fill:none;fill-rule:evenodd;stroke:#000000;stroke-width:0.9198662;stroke-linecap:butt;stroke-linejoin:miter;stroke-miterlimit:4;stroke-dasharray:0.91986621, 0.91986621;stroke-dashoffset:0;stroke-opacity:1"
       d="m 80,772.3625 275,0"
       id="path5396"
       inkscape:connector-curvature="0" />
    <path
       style="fill:none;fill-rule:evenodd;stroke:#000000;stroke-width:0.9198662;stroke-linecap:butt;stroke-linejoin:miter;stroke-miterlimit:4;stroke-dasharray:0.91986621, 0.91986621;stroke-dashoffset:0;stroke-opacity:1"
       d="m 80,692.36218 275,0"
       id="path5398"
       inkscape:connector-curvature="0" />
    <path
       style="fill:none;fill-rule:evenodd;stroke:#000000;stroke-width:0.9198662;stroke-linecap:butt;stroke-linejoin:miter;stroke-miterlimit:4;stroke-dasharray:0.91986621, 0.91986621;stroke-dashoffset:0;stroke-opacity:1"
       d="m 80,612.36218 275,0"
       id="path5400"
       inkscape:connector-curvature="0" />
    <path
       style="fill:none;fill-rule:evenodd;stroke:#000000;stroke-width:1px;stroke-linecap:butt;stroke-linejoin:miter;stroke-opacity:0.50588238"
       d="m 140,852.36218 2,-5 46,0 2,5"
       id="path5678"
       inkscape:connector-curvature="0" />
    <path
       style="fill:none;fill-rule:evenodd;stroke:#000000;stroke-width:1px;stroke-linecap:butt;stroke-linejoin:miter;stroke-opacity:0.43529412"
       d="m 140,852.36218 4,-10 42,0 4,10"
       id="path5682"
       inkscape:connector-curvature="0" />
    <path
       style="fill:none;fill-rule:evenodd;stroke:#000000;stroke-width:1px;stroke-linecap:butt;stroke-linejoin:miter;stroke-opacity:0.36470589"
       d="m 140,852.36218 5,-15 40,0 5,15"
       id="path5684"
       inkscape:connector-curvature="0" />
    <path
       style="fill:none;fill-rule:evenodd;stroke:#000000;stroke-width:1px;stroke-linecap:butt;stroke-linejoin:miter;stroke-opacity:0.29411766"
       d="m 140,852.36218 7,-20 36,0 7,20"
       id="path5686"
       inkscape:connector-curvature="0" />
    <path
       style="fill:none;fill-rule:evenodd;stroke:#000000;stroke-width:1px;stroke-linecap:butt;stroke-linejoin:miter;stroke-opacity:0.22352941"
       d="m 140,852.36218 8,-25 34,0 8,25"
       id="path5688"
       inkscape:connector-curvature="0" />
    <path
       sodipodi:nodetypes="cccc"
       inkscape:connector-curvature="0"
       id="path3428-6-5"
       d="m 345,562.90886 9.97183,2e-5 0,393.90662 -9.97183,0"
       style="fill:none;stroke:#000000;stroke-width:1.09336019;stroke-linecap:butt;stroke-linejoin:miter;stroke-miterlimit:4;stroke-dasharray:none;stroke-opacity:1" />
    <g
       transform="matrix(1.459481,0,0,0.28440331,-499.52409,536.22418)"
       id="layer1-0-8"
       inkscape:label="Ebene 1"
       style="stroke-width:1.08869994;stroke-miterlimit:4;stroke-dasharray:none">
      <path
         style="fill:none;stroke:#000000;stroke-width:1.08869994;stroke-miterlimit:4;stroke-dasharray:none;stroke-dashoffset:0;stroke-opacity:1"
         d="m 475.22568,267.76798 c 0.7258,0.0721 1.45159,-0.0227 2.17738,-0.30646 0.72579,-0.2838 1.45159,-0.758 2.17738,-1.28513 0.72579,-0.52714 1.45158,-1.09863 2.17738,-1.47882 0.72579,-0.38019 1.45158,-0.55394 2.17737,-0.36642 0.7258,0.18751 1.45159,0.74659 2.17738,1.57081 0.72579,0.82422 1.45159,1.90728 2.17738,2.86867 0.72579,0.96138 1.45158,1.77692 2.17738,2.03124 0.72579,0.25432 1.45158,-0.0796 2.17737,-1.07678 0.7258,-0.99716 1.45159,-2.66329 2.17738,-4.51542 0.72579,-1.85213 1.45159,-3.86011 2.17738,-5.19595 0.72579,-1.33583 1.45158,-1.9463 2.17738,-1.28746 0.72579,0.65883 1.45158,2.62323 2.17737,5.5192 0.7258,2.89597 1.45159,6.70139 2.17738,10.07929 0.72579,3.3779 1.45159,6.24338 2.17738,7.13696 0.72579,0.89357 1.45158,-0.27978 2.17738,-3.78338 0.72579,-3.50361 1.45158,-9.3577 2.17737,-15.8653 0.72579,-6.50761 1.45159,-13.56283 2.17738,-18.25641 0.72579,-4.69356 1.45158,-6.83851 2.17738,-4.52362 0.72579,2.31489 1.45158,9.21697 2.17737,19.39219 0.7258,10.17522 1.45159,23.5459 2.17738,35.41444 0.72579,11.86854 1.45159,21.93665 2.17738,25.07631 0.72579,3.13966 1.45158,-0.983 2.17738,-13.29322 0.72579,-12.31022 1.45158,-32.87907 2.17737,-55.74409 0.7258,-22.86502 1.45159,-47.65416 2.17738,-64.14543 0.72579,-16.49126 1.45159,-16.47461 2.17738,0 0.72579,16.47461 1.45158,41.27686 2.17738,64.14543 0.72579,22.86857 1.45158,43.41853 2.17737,55.74409 0.7258,12.32556 1.45159,16.41939 2.17738,13.29322 0.72579,-3.12616 1.45159,-13.21113 2.17738,-25.07631 0.72579,-11.86518 1.45158,-25.23329 2.17738,-35.41444 0.72579,-10.18115 1.45158,-17.06878 2.17737,-19.39219 0.7258,-2.32341 1.45159,-0.1652 2.17738,4.52362 0.72579,4.68884 1.45159,11.74779 2.17738,18.25641 0.72579,6.50861 1.45158,12.35733 2.17737,15.8653 0.7258,3.50797 1.45159,4.67311 2.17738,3.78338 0.72579,-0.88974 1.45159,-3.76002 2.17738,-7.13696 0.72579,-3.37695 1.45158,-7.18164 2.17738,-10.07929 0.72579,-2.89765 1.45158,-4.85794 2.17737,-5.5192 0.7258,-0.66127 1.45159,-0.047 2.17738,1.28746 0.72579,1.33449 1.45159,3.34354 2.17738,5.19595 0.72579,1.85241 1.45158,3.51701 2.17738,4.51542 0.72579,0.9984 1.45158,1.33001 2.17737,1.07678 0.7258,-0.25323 1.45159,-1.07013 2.17738,-2.03124 0.72579,-0.96112 1.45159,-2.04397 2.17738,-2.86867 0.72579,-0.8247 1.45158,-1.38261 2.17738,-1.57081 0.72579,-0.18821 1.45158,-0.0134 2.17737,0.36642 0.7258,0.37981 1.45159,0.9516 2.17738,1.47882 0.72579,0.52721 1.45159,1.00097 2.17738,1.28513 0.72579,0.28415 1.45158,0.37853 2.17738,0.30646"
         title="cos(x)*exp(-abs(x/5))"
         id="path2762-9-0"
         inkscape:connector-curvature="0" />
    </g>
    <path
       style="fill:none;fill-opacity:1;fill-rule:evenodd;stroke:#000000;stroke-width:2.52591777;stroke-linecap:butt;stroke-linejoin:miter;stroke-miterlimit:4;stroke-dasharray:none;stroke-opacity:1;marker-end:url(#Arrow1Send-08)"
       d="m 130.1875,880.5028 0,-21.26753"
       id="path8541-7"
       inkscape:connector-curvature="0" />
    <text
       xml:space="preserve"
       style="font-style:normal;font-weight:normal;font-size:40px;line-height:125%;font-family:Sans;letter-spacing:0px;word-spacing:0px;fill:#000000;fill-opacity:1;stroke:none;stroke-width:1px;stroke-linecap:butt;stroke-linejoin:miter;stroke-opacity:1"
       x="84.53125"
       y="587.04968"
       id="text6917"
       sodipodi:linespacing="125%"><tspan
         sodipodi:role="line"
         id="tspan6919"
         x="84.53125"
         y="587.04968"
         style="font-style:normal;font-variant:normal;font-weight:normal;font-stretch:normal;font-size:15px;font-family:Arial;-inkscape-font-specification:Arial">RF</tspan></text>
    <text
       xml:space="preserve"
       style="font-style:normal;font-weight:normal;font-size:40px;line-height:125%;font-family:Sans;letter-spacing:0px;word-spacing:0px;fill:#000000;fill-opacity:1;stroke:none;stroke-width:1px;stroke-linecap:butt;stroke-linejoin:miter;stroke-opacity:1"
       x="228.53125"
       y="595.04968"
       id="text6917-6"
       sodipodi:linespacing="125%"><tspan
         sodipodi:role="line"
         id="tspan6919-5"
         x="228.53125"
         y="595.04968"
         style="font-style:normal;font-variant:normal;font-weight:normal;font-stretch:normal;font-size:15px;font-family:Arial;-inkscape-font-specification:Arial">Echo</tspan></text>
    <path
       style="fill:none;fill-rule:evenodd;stroke:#000000;stroke-width:0.6462912;stroke-linecap:butt;stroke-linejoin:miter;stroke-miterlimit:4;stroke-dasharray:0.64629119, 0.64629119;stroke-dashoffset:0;stroke-opacity:1"
       d="m 114,577.36218 0,362"
       id="path6939"
       inkscape:connector-curvature="0" />
    <path
       style="fill:none;fill-rule:evenodd;stroke:#000000;stroke-width:0.65259659;stroke-linecap:butt;stroke-linejoin:miter;stroke-miterlimit:4;stroke-dasharray:0.65259663, 0.65259663;stroke-dashoffset:0;stroke-opacity:1"
       d="m 272.0002,577.36218 0,362"
       id="path6941"
       inkscape:connector-curvature="0" />
    <path
       style="fill:none;fill-rule:evenodd;stroke:#000000;stroke-width:0.56900001;stroke-linecap:butt;stroke-linejoin:miter;stroke-miterlimit:4;stroke-dasharray:none;stroke-opacity:1;marker-end:url(#Arrow1Mend)"
       d="m 179.23968,939.14115 -63.95204,0"
       id="path6943"
       inkscape:connector-curvature="0" />
    <path
       style="fill:none;fill-rule:evenodd;stroke:#000000;stroke-width:0.56560421;stroke-linecap:butt;stroke-linejoin:miter;stroke-miterlimit:4;stroke-dasharray:none;stroke-opacity:1;marker-end:url(#marker6975)"
       d="m 206.4,939.35376 63.98162,0"
       id="path6967"
       inkscape:connector-curvature="0" />
    <text
       xml:space="preserve"
       style="font-style:normal;font-weight:normal;font-size:40px;line-height:125%;font-family:Sans;letter-spacing:0px;word-spacing:0px;fill:#000000;fill-opacity:1;stroke:none;stroke-width:1px;stroke-linecap:butt;stroke-linejoin:miter;stroke-opacity:1"
       x="183.53125"
       y="946.04968"
       id="text6917-3"
       sodipodi:linespacing="125%"><tspan
         sodipodi:role="line"
         id="tspan6919-0"
         x="183.53125"
         y="946.04968"
         style="font-style:normal;font-variant:normal;font-weight:normal;font-stretch:normal;font-size:15px;font-family:Arial;-inkscape-font-specification:Arial">TE</tspan></text>
    <path
       style="fill:none;fill-rule:evenodd;stroke:#000000;stroke-width:0.73739839;stroke-linecap:butt;stroke-linejoin:miter;stroke-miterlimit:4;stroke-dasharray:none;stroke-opacity:1;marker-end:url(#marker6975-4)"
       d="m 245,949.7767 108.75128,0"
       id="path6967-0"
       inkscape:connector-curvature="0" />
    <path
       style="fill:none;fill-rule:evenodd;stroke:#000000;stroke-width:0.73739839;stroke-linecap:butt;stroke-linejoin:miter;stroke-miterlimit:4;stroke-dasharray:none;stroke-opacity:1;marker-end:url(#marker6975-4-5)"
       d="m 190.06039,949.7767 -108.751284,0"
       id="path6967-0-5"
       inkscape:connector-curvature="0" />
    <text
       xml:space="preserve"
       style="font-style:normal;font-weight:normal;font-size:40px;line-height:125%;font-family:Sans;letter-spacing:0px;word-spacing:0px;fill:#000000;fill-opacity:1;stroke:none;stroke-width:1px;stroke-linecap:butt;stroke-linejoin:miter;stroke-opacity:1"
       x="209.53125"
       y="956.04968"
       id="text6917-3-4"
       sodipodi:linespacing="125%"><tspan
         sodipodi:role="line"
         id="tspan6919-0-5"
         x="209.53125"
         y="956.04968"
         style="font-style:normal;font-variant:normal;font-weight:normal;font-stretch:normal;font-size:15px;font-family:Arial;-inkscape-font-specification:Arial">TR</tspan></text>
    <text
       xml:space="preserve"
       style="font-style:normal;font-weight:normal;font-size:40px;line-height:125%;font-family:Sans;letter-spacing:0px;word-spacing:0px;fill:#000000;fill-opacity:1;stroke:none;stroke-width:1px;stroke-linecap:butt;stroke-linejoin:miter;stroke-opacity:1"
       x="59.20166"
       y="694.36218"
       id="text6917-3-3"
       sodipodi:linespacing="125%"><tspan
         sodipodi:role="line"
         id="tspan6919-0-1"
         x="59.20166"
         y="694.36218"
         style="font-style:normal;font-variant:normal;font-weight:normal;font-stretch:normal;font-size:15px;font-family:Arial;-inkscape-font-specification:Arial">G<tspan
   style="font-size:64.99999762%;baseline-shift:sub"
   id="tspan7722">z</tspan></tspan></text>
    <text
       xml:space="preserve"
       style="font-style:normal;font-weight:normal;font-size:40px;line-height:125%;font-family:Sans;letter-spacing:0px;word-spacing:0px;fill:#000000;fill-opacity:1;stroke:none;stroke-width:1px;stroke-linecap:butt;stroke-linejoin:miter;stroke-opacity:1"
       x="59.20166"
       y="774.36218"
       id="text6917-3-3-7"
       sodipodi:linespacing="125%"><tspan
         sodipodi:role="line"
         id="tspan6919-0-1-3"
         x="59.20166"
         y="774.36218"
         style="font-style:normal;font-variant:normal;font-weight:normal;font-stretch:normal;font-size:15px;font-family:Arial;-inkscape-font-specification:Arial">G<tspan
   style="font-size:64.99999762%;baseline-shift:sub"
   id="tspan7722-4">x</tspan></tspan></text>
    <text
       xml:space="preserve"
       style="font-style:normal;font-weight:normal;font-size:40px;line-height:125%;font-family:Sans;letter-spacing:0px;word-spacing:0px;fill:#000000;fill-opacity:1;stroke:none;stroke-width:1px;stroke-linecap:butt;stroke-linejoin:miter;stroke-opacity:1"
       x="59.20166"
       y="852.3103"
       id="text6917-3-3-5"
       sodipodi:linespacing="125%"><tspan
         sodipodi:role="line"
         id="tspan6919-0-1-5"
         x="59.20166"
         y="852.3103"
         style="font-style:normal;font-variant:normal;font-weight:normal;font-stretch:normal;font-size:15px;font-family:Arial;-inkscape-font-specification:Arial">G<tspan
   style="font-size:64.99999762%;baseline-shift:sub"
   id="tspan7722-3">y</tspan></tspan></text>
    <text
       xml:space="preserve"
       style="font-style:normal;font-weight:normal;font-size:40px;line-height:125%;font-family:Sans;letter-spacing:0px;word-spacing:0px;fill:#000000;fill-opacity:1;stroke:none;stroke-width:1px;stroke-linecap:butt;stroke-linejoin:miter;stroke-opacity:1"
       x="105.0918"
       y="684.20544"
       id="text6917-3-3-71"
       sodipodi:linespacing="125%"><tspan
         sodipodi:role="line"
         id="tspan6919-0-1-1"
         x="105.0918"
         y="684.20544"
         style="font-style:normal;font-variant:normal;font-weight:normal;font-stretch:normal;font-size:15px;font-family:Arial;-inkscape-font-specification:Arial">(a)</tspan></text>
    <text
       xml:space="preserve"
       style="font-style:normal;font-weight:normal;font-size:40px;line-height:125%;font-family:Sans;letter-spacing:0px;word-spacing:0px;fill:#000000;fill-opacity:1;stroke:none;stroke-width:1px;stroke-linecap:butt;stroke-linejoin:miter;stroke-opacity:1"
       x="161.0918"
       y="709.20544"
       id="text6917-3-3-71-8"
       sodipodi:linespacing="125%"><tspan
         sodipodi:role="line"
         id="tspan6919-0-1-1-3"
         x="161.0918"
         y="709.20544"
         style="font-style:normal;font-variant:normal;font-weight:normal;font-stretch:normal;font-size:15px;font-family:Arial;-inkscape-font-specification:Arial">(b)</tspan></text>
    <text
       xml:space="preserve"
       style="font-style:normal;font-weight:normal;font-size:40px;line-height:125%;font-family:Sans;letter-spacing:0px;word-spacing:0px;fill:#000000;fill-opacity:1;stroke:none;stroke-width:1px;stroke-linecap:butt;stroke-linejoin:miter;stroke-opacity:1"
       x="157.0918"
       y="791.20544"
       id="text6917-3-3-71-5"
       sodipodi:linespacing="125%"><tspan
         sodipodi:role="line"
         id="tspan6919-0-1-1-7"
         x="157.0918"
         y="791.20544"
         style="font-style:normal;font-variant:normal;font-weight:normal;font-stretch:normal;font-size:15px;font-family:Arial;-inkscape-font-specification:Arial">(c)</tspan></text>
    <text
       xml:space="preserve"
       style="font-style:normal;font-weight:normal;font-size:40px;line-height:125%;font-family:Sans;letter-spacing:0px;word-spacing:0px;fill:#000000;fill-opacity:1;stroke:none;stroke-width:1px;stroke-linecap:butt;stroke-linejoin:miter;stroke-opacity:1"
       x="262.54184"
       y="773.14612"
       id="text6917-3-3-71-6"
       sodipodi:linespacing="125%"><tspan
         sodipodi:role="line"
         id="tspan6919-0-1-1-5"
         x="262.54184"
         y="773.14612"
         style="font-style:normal;font-variant:normal;font-weight:normal;font-stretch:normal;font-size:15px;font-family:Arial;-inkscape-font-specification:Arial">(d)</tspan></text>
    <text
       xml:space="preserve"
       style="font-style:normal;font-weight:normal;font-size:40px;line-height:125%;font-family:Sans;letter-spacing:0px;word-spacing:0px;fill:#000000;fill-opacity:1;stroke:none;stroke-width:1px;stroke-linecap:butt;stroke-linejoin:miter;stroke-opacity:1"
       x="127.97314"
       y="836.78827"
       id="text6917-3-3-71-2"
       sodipodi:linespacing="125%"><tspan
         sodipodi:role="line"
         id="tspan6919-0-1-1-9"
         x="127.97314"
         y="836.78827"
         style="font-style:normal;font-variant:normal;font-weight:normal;font-stretch:normal;font-size:15px;font-family:Arial;-inkscape-font-specification:Arial">(c)</tspan></text>
    <text
       xml:space="preserve"
       style="font-style:normal;font-weight:normal;font-size:40px;line-height:125%;font-family:Sans;letter-spacing:0px;word-spacing:0px;fill:#000000;fill-opacity:1;stroke:none;stroke-width:1px;stroke-linecap:butt;stroke-linejoin:miter;stroke-opacity:1"
       x="371.67465"
       y="692.89404"
       id="text6917-3-3-71-05"
       sodipodi:linespacing="125%"><tspan
         sodipodi:role="line"
         id="tspan6919-0-1-1-4"
         x="371.67465"
         y="692.89404"
         style="font-style:normal;font-variant:normal;font-weight:bold;font-stretch:normal;font-size:15px;font-family:Arial;-inkscape-font-specification:'Arial Bold'">Gradients: </tspan><tspan
         sodipodi:role="line"
         x="371.67465"
         y="711.64404"
         style="font-style:normal;font-variant:normal;font-weight:normal;font-stretch:normal;font-size:15px;font-family:Arial;-inkscape-font-specification:Arial"
         id="tspan7843">(a) Slice selection</tspan><tspan
         sodipodi:role="line"
         x="371.67465"
         y="730.39404"
         style="font-style:normal;font-variant:normal;font-weight:normal;font-stretch:normal;font-size:15px;font-family:Arial;-inkscape-font-specification:Arial"
         id="tspan7831">(b) Rewinder</tspan><tspan
         sodipodi:role="line"
         x="371.67465"
         y="749.14404"
         style="font-style:normal;font-variant:normal;font-weight:normal;font-stretch:normal;font-size:15px;font-family:Arial;-inkscape-font-specification:Arial"
         id="tspan7833">(c) Prephasing</tspan><tspan
         sodipodi:role="line"
         x="371.67465"
         y="767.89404"
         style="font-style:normal;font-variant:normal;font-weight:normal;font-stretch:normal;font-size:15px;font-family:Arial;-inkscape-font-specification:Arial"
         id="tspan7839">(d) Readout</tspan></text>
    <path
       style="fill:none;fill-rule:evenodd;stroke:#000000;stroke-width:1px;stroke-linecap:butt;stroke-linejoin:miter;stroke-opacity:1"
       d="m 140,772.36218 10,30 30,0 10,-30 5,-15 155,0 5,15"
       id="path4249"
       inkscape:connector-curvature="0" />
    <path
       style="fill:none;fill-rule:evenodd;stroke:#000000;stroke-width:0.9198662;stroke-linecap:butt;stroke-linejoin:miter;stroke-miterlimit:4;stroke-dasharray:0.91986621, 0.91986621;stroke-dashoffset:0;stroke-opacity:1"
       d="m 80,932.36218 275,0"
       id="path5394-5"
       inkscape:connector-curvature="0" />
    <path
       style="fill:none;fill-rule:evenodd;stroke:#000000;stroke-width:1px;stroke-linecap:butt;stroke-linejoin:miter;stroke-opacity:1"
       d="m 195,932.36218 0,-25 155,0 0,25"
       id="path4252"
       inkscape:connector-curvature="0" />
    <text
       xml:space="preserve"
       style="font-style:normal;font-weight:normal;font-size:40px;line-height:125%;font-family:Sans;letter-spacing:0px;word-spacing:0px;fill:#000000;fill-opacity:1;stroke:none;stroke-width:1px;stroke-linecap:butt;stroke-linejoin:miter;stroke-opacity:1"
       x="46.53125"
       y="936.67908"
       id="text6917-5"
       sodipodi:linespacing="125%"><tspan
         sodipodi:role="line"
         id="tspan6919-7"
         x="46.53125"
         y="936.67908"
         style="font-style:normal;font-variant:normal;font-weight:normal;font-stretch:normal;font-size:15px;font-family:Arial;-inkscape-font-specification:Arial">ADC</tspan></text>
  </g>
</svg>
