<?xml version="1.0" encoding="UTF-8" standalone="no"?>
<!-- Created with Inkscape (http://www.inkscape.org/) -->

<svg
   xmlns:ns0="http://www.iki.fi/pav/software/textext/"
   xmlns:dc="http://purl.org/dc/elements/1.1/"
   xmlns:cc="http://creativecommons.org/ns#"
   xmlns:rdf="http://www.w3.org/1999/02/22-rdf-syntax-ns#"
   xmlns:svg="http://www.w3.org/2000/svg"
   xmlns="http://www.w3.org/2000/svg"
   xmlns:sodipodi="http://sodipodi.sourceforge.net/DTD/sodipodi-0.dtd"
   xmlns:inkscape="http://www.inkscape.org/namespaces/inkscape"
   width="210mm"
   height="297mm"
   viewBox="0 0 744.09448819 1052.3622047"
   id="svg6548"
   version="1.1"
   inkscape:version="0.91 r13725"
   sodipodi:docname="mri-fid.svg"
   inkscape:export-filename="H:\Publications\Thesis\fig\mri-fid.png"
   inkscape:export-xdpi="300"
   inkscape:export-ydpi="300">
  <sodipodi:namedview
     id="base"
     pagecolor="#ffffff"
     bordercolor="#666666"
     borderopacity="1.0"
     inkscape:pageopacity="1"
     inkscape:pageshadow="2"
     inkscape:zoom="0.49497475"
     inkscape:cx="-53.184402"
     inkscape:cy="577.40209"
     inkscape:document-units="px"
     inkscape:current-layer="layer1"
     showgrid="false"
     inkscape:window-width="1600"
     inkscape:window-height="1138"
     inkscape:window-x="1592"
     inkscape:window-y="-8"
     inkscape:window-maximized="1">
    <inkscape:grid
       type="xygrid"
       id="grid7110" />
  </sodipodi:namedview>
  <defs
     id="defs6550">
    <marker
       inkscape:stockid="Arrow1Send"
       orient="auto"
       refY="0.0"
       refX="0.0"
       id="Arrow1Send"
       style="overflow:visible;"
       inkscape:isstock="true">
      <path
         id="path7289"
         d="M 0.0,0.0 L 5.0,-5.0 L -12.5,0.0 L 5.0,5.0 L 0.0,0.0 z "
         style="fill-rule:evenodd;stroke:#000000;stroke-width:1pt;stroke-opacity:1;fill:#000000;fill-opacity:1"
         transform="scale(0.2) rotate(180) translate(6,0)" />
    </marker>
    <marker
       inkscape:stockid="Arrow1Mend"
       orient="auto"
       refY="0.0"
       refX="0.0"
       id="Arrow1Mend"
       style="overflow:visible;"
       inkscape:isstock="true">
      <path
         id="path7283"
         d="M 0.0,0.0 L 5.0,-5.0 L -12.5,0.0 L 5.0,5.0 L 0.0,0.0 z "
         style="fill-rule:evenodd;stroke:#000000;stroke-width:1pt;stroke-opacity:1;fill:#000000;fill-opacity:1"
         transform="scale(0.4) rotate(180) translate(10,0)" />
    </marker>
    <clipPath
       id="clip1">
      <path
         id="path7119"
         d="M 0 136 L 242.523438 136 L 242.523438 0 L 0 0 Z " />
    </clipPath>
  </defs>
  <metadata
     id="metadata6553">
    <rdf:RDF>
      <cc:Work
         rdf:about="">
        <dc:format>image/svg+xml</dc:format>
        <dc:type
           rdf:resource="http://purl.org/dc/dcmitype/StillImage" />
        <dc:title />
      </cc:Work>
    </rdf:RDF>
  </metadata>
  <g
     inkscape:label="Layer 1"
     inkscape:groupmode="layer"
     id="layer1">
    <path
       style="fill:none;stroke:#000000;stroke-width:2.02556968;stroke-miterlimit:4;stroke-dasharray:none;stroke-dashoffset:0;stroke-opacity:1"
       d="m 90.033731,251.34998 c 4.193069,-0.13973 8.386139,-0.3317 12.579219,-1.17118 4.19308,-0.83948 8.38615,-2.02668 12.57921,-7.01396 4.19309,-4.98727 8.38616,-16.56116 12.57923,-35.24592 4.19307,-18.68476 8.38614,-18.68583 12.57922,0 4.19308,18.68583 8.38615,30.24994 12.57922,35.24592 4.19307,4.996 8.38614,6.17298 12.57922,7.01396 4.19308,0.84098 8.38614,1.03145 12.57922,1.17118"
       title="1/cosh(x)"
       id="path3997"
       inkscape:connector-curvature="0" />
    <g
       transform="matrix(1.0000128,0,0,1,-133.13354,970.61278)"
       id="text4650"
       style="font-style:normal;font-weight:normal;font-size:40px;line-height:125%;font-family:Sans;letter-spacing:0px;word-spacing:0px;fill:#000000;fill-opacity:1;stroke:none">
      <path
         inkscape:connector-curvature="0"
         id="path4655"
         style="font-variant:normal;font-stretch:normal;font-size:24px;font-family:Arial;-inkscape-font-specification:Arial"
         d="m 173.13133,-718.25061 0,-17.17969 7.61719,0 c 1.53124,2e-5 2.6953,0.15432 3.49219,0.46289 0.79686,0.30861 1.43358,0.85353 1.91015,1.63477 0.47655,0.78126 0.71483,1.64454 0.71485,2.58984 -2e-5,1.21876 -0.39455,2.24611 -1.1836,3.08203 -0.78907,0.83595 -2.00782,1.3672 -3.65625,1.59375 0.60155,0.28907 1.05859,0.57423 1.3711,0.85547 0.66405,0.60938 1.29295,1.3711 1.88672,2.28516 l 2.98828,4.67578 -2.85938,0 -2.27344,-3.57422 c -0.66407,-1.03124 -1.21094,-1.82031 -1.64062,-2.36719 -0.4297,-0.54687 -0.81446,-0.92968 -1.1543,-1.14843 -0.33985,-0.21875 -0.68555,-0.37109 -1.03711,-0.45704 -0.25782,-0.0547 -0.67969,-0.082 -1.26562,-0.082 l -2.63672,0 0,7.62891 z m 2.27344,-9.59766 4.88672,0 c 1.03905,10e-6 1.85155,-0.10741 2.4375,-0.32226 0.58592,-0.21484 1.03124,-0.55859 1.33594,-1.03125 0.30467,-0.47265 0.45701,-0.98632 0.45703,-1.54102 -2e-5,-0.81248 -0.29494,-1.48045 -0.88477,-2.0039 -0.58985,-0.52343 -1.52149,-0.78515 -2.79492,-0.78516 l -5.4375,0 z" />
      <path
         inkscape:connector-curvature="0"
         id="path4657"
         style="font-variant:normal;font-stretch:normal;font-size:24px;font-family:Arial;-inkscape-font-specification:Arial"
         d="m 190.55711,-718.25061 0,-17.17969 11.58985,0 0,2.02735 -9.31641,0 0,5.32031 8.0625,0 0,2.02734 -8.0625,0 0,7.80469 z" />
    </g>
    <path
       style="fill:none;fill-rule:evenodd;stroke:#000000;stroke-width:2.17642879;stroke-linecap:butt;stroke-linejoin:miter;stroke-miterlimit:4;stroke-dasharray:none;stroke-opacity:1"
       d="m 90,251.3622 450,0"
       id="path7112"
       inkscape:connector-curvature="0" />
    <g
       id="surface158866"
       transform="matrix(1.25,0,0,1.25,179.24865,286.92339)">
      <g
         id="g7122"
         clip-path="url(#clip1)"
         style="clip-rule:nonzero">
        <path
           id="path7124"
           d="m 0,136 242.52344,0 0,-136.421875 -242.52344,0 z"
           style="fill:#ffffff;fill-opacity:1;fill-rule:nonzero;stroke:none"
           inkscape:connector-curvature="0" />
      </g>
      <path
         id="path7126"
         d="m 0,136 242.52344,0 0,-136.421875 -242.52344,0 z"
         style="fill:#ffffff;fill-opacity:1;fill-rule:nonzero;stroke:none"
         inkscape:connector-curvature="0" />
      <path
         id="path7128"
         transform="matrix(0.1,0,0,-0.1,0,136)"
         d="m 0,682.10937 4.023438,85.15625 4.0625,83.125 4.023437,79.80469 4.0625,75.31249 4.023438,69.6094 4.0625,62.8516 4.023437,55.1953 4.0625,46.7187 4.023438,37.5781 4.0625,27.9297 4.023437,17.8907 4.0625,7.6953 4.023438,-2.6172 4.0625,-12.7344 4.023437,-22.5781 4.0625,-32.0313 4.023438,-40.8593 4.0625,-48.9844 4.023437,-56.3281 4.0625,-62.6172 4.023438,-67.96879 4.023437,-72.1875 4.0625,-75.23437 4.023438,-77.07032 4.062502,-77.65625 4.0625,-77.03125 4.02344,-75.23437 4.02343,-72.22656 4.0625,-68.125 4.02344,-62.96875 4.0625,-56.875 4.02344,-49.96094 4.0625,-42.26563 4.02343,-34.02343 4.0625,-25.27344 4.02344,-16.17187 4.0625,-6.95313 4.02344,2.34375 4.0625,11.52344 4.02344,20.42968 4.0625,28.98438 4.02343,36.99219 4.0625,44.33593 4.02344,50.9375 4.0625,56.67969 4.02344,61.48438 4.02344,65.35156 4.0625,68.04687 4.02343,69.72657"
         style="fill:none;stroke:#000000;stroke-width:20.0007;stroke-linecap:butt;stroke-linejoin:round;stroke-miterlimit:10;stroke-opacity:1"
         inkscape:connector-curvature="0" />
      <path
         id="path7130"
         transform="matrix(0.1,0,0,-0.1,0,136)"
         d="m 194.02344,542.10937 4.02343,69.72657 4.0625,70.27343 4.02344,69.72657 4.0625,68.04687 4.02344,65.35156 4.0625,61.64063 4.02344,56.9922 4.0625,51.4453 4.02343,45.2344 4.0625,38.2422 4.02344,30.7422 4.0625,22.8906 4.02344,14.6484 4.0625,6.2891 4.02344,-2.1485 4.02343,-10.4296 4.0625,-18.4766 4.02344,-26.2109 4.0625,-33.4766 4.02344,-40.0781 4.0625,-46.1328 4.02344,-51.28911 4.0625,-55.66407 4.02343,-59.0625 4.0625,-61.60156 4.02344,-63.08594 4.0625,-63.59375 4.02344,-63.08593 4.0625,-61.5625 4.02344,-59.14063 4.0625,-55.78125 4.02343,-51.5625 4.0625,-46.5625 4.02344,-40.89844 4.0625,-34.60937 4.02344,-27.85156 4.02344,-20.70313 4.0625,-13.24219 4.02343,-5.66406 4.0625,1.91406 4.02344,9.41407 4.0625,16.75781 4.02344,23.71094 4.0625,30.27343 4.02344,36.28907 4.0625,41.71875 4.02343,46.40625 4.0625,50.35156 4.02344,53.47656 4.0625,55.74219 4.02344,57.07031"
         style="fill:none;stroke:#000000;stroke-width:20.0007;stroke-linecap:butt;stroke-linejoin:round;stroke-miterlimit:10;stroke-opacity:1"
         inkscape:connector-curvature="0" />
      <path
         id="path7132"
         transform="matrix(0.1,0,0,-0.1,0,136)"
         d="m 396.13281,567.5 4.02344,57.07031 4.0625,57.53906 4.02344,57.07032 4.0625,55.74218 4.02343,53.51563 4.0625,50.42969 4.02344,46.67968 4.02344,42.14844 4.0625,36.99219 4.0625,31.3281 4.02344,25.1563 4.0625,18.7109 4.02343,12.0313 4.02344,5.1172 4.0625,-1.7188 4.02344,-8.5156 4.0625,-15.1563 4.02344,-21.4843 4.0625,-27.3829 4.02343,-32.8515 4.0625,-37.7344 4.02344,-41.99219 4.0625,-45.54687 4.02344,-48.39844 4.0625,-50.42969 4.02344,-51.64062 4.0625,-52.07032 4.02343,-51.64062 4.0625,-50.42969 4.02344,-48.39844 4.0625,-45.66406 4.02344,-42.22656 4.0625,-38.125 4.02344,-33.47656 4.02343,-28.35938 4.0625,-22.77344 4.02344,-16.95312 4.0625,-10.85938 4.02344,-4.64843 4.0625,1.60156 4.02344,7.69531 4.0625,13.71094 4.02343,19.41406 4.0625,24.80469 4.02344,29.6875 4.0625,34.17969 4.02344,37.96875 4.0625,41.25 4.02344,43.78906 4.0625,45.625 L 602.26562,635"
         style="fill:none;stroke:#000000;stroke-width:20.0007;stroke-linecap:butt;stroke-linejoin:round;stroke-miterlimit:10;stroke-opacity:1"
         inkscape:connector-curvature="0" />
      <path
         id="path7134"
         transform="matrix(0.1,0,0,-0.1,0,136)"
         d="M 598.24219,588.28125 602.26562,635 l 4.0625,47.10937 4.02344,46.71875 4.0625,45.625 4.02344,43.82813 4.02344,41.32812 4.0625,38.16407 4.02343,34.53125 4.0625,30.27343 4.02344,25.66407 4.0625,20.62501 4.02344,15.3125 4.0625,9.8047 4.02344,4.2187 4.0625,-1.4062 4.02343,-6.9922 4.0625,-12.4219 4.02344,-17.57811 4.0625,-22.42188 4.02344,-26.875 4.0625,-30.89844 4.02344,-34.375 4.0625,-37.30468 4.02343,-39.60938 4.0625,-41.28906 4.02344,-42.30469 4.02344,-42.61719 4.0625,-42.26562 4.02344,-41.28906 4.0625,-39.64844 4.02343,-37.38281 4.0625,-34.57032 4.02344,-31.21093 4.0625,-27.42188 4.02344,-23.20312 4.0625,-18.63282 4.02344,-13.90625 4.0625,-8.86718 4.02343,-3.82813 4.0625,1.28906 4.02344,6.32813 4.0625,11.21094 4.02344,15.89843 4.0625,20.3125 4.02344,24.33594 4.0625,27.96875 4.02343,31.09375 4.02344,33.75 4.0625,35.85938 4.02344,37.34375 4.0625,38.28125"
         style="fill:none;stroke:#000000;stroke-width:20.0007;stroke-linecap:butt;stroke-linejoin:round;stroke-miterlimit:10;stroke-opacity:1"
         inkscape:connector-curvature="0" />
      <path
         id="path7136"
         transform="matrix(0.1,0,0,-0.1,0,136)"
         d="m 800.3125,605.27344 4.0625,38.28125 4.0625,38.55468 4.02344,38.24219 4.02343,37.38281 4.0625,35.85938 4.02344,33.82812 4.0625,31.25 4.02344,28.28125 4.0625,24.80469 4.02344,20.97656 4.0625,16.875 4.02343,12.53907 4.0625,8.04687 4.02344,3.47656 4.0625,-1.17187 4.02344,-5.74219 4.0625,-10.11719 4.02344,-14.41406 4.0625,-18.35937 4.02343,-21.99219 4.0625,-25.3125 4.02344,-28.16406 4.0625,-30.54688 4.02344,-32.42187 4.02344,-33.78907 4.0625,-34.64843 4.02343,-34.88282 4.0625,-34.60937 4.02344,-33.78906 4.0625,-32.46094 4.02344,-30.625 4.0625,-28.28125 4.02344,-25.58594 4.0625,-22.42187 4.02343,-19.02344 4.0625,-15.27344 4.02344,-11.32812 4.0625,-7.26563 4.02344,-3.125 4.0625,1.01563 4.02344,5.19531 4.0625,9.17969 4.02343,13.00781 4.0625,16.64062 4.02344,19.92188 4.02344,22.89062 4.0625,25.46875 4.02344,27.61719 4.0625,29.375 4.02346,30.58594 4.0625,31.32812"
         style="fill:none;stroke:#000000;stroke-width:20.0007;stroke-linecap:butt;stroke-linejoin:round;stroke-miterlimit:10;stroke-opacity:1"
         inkscape:connector-curvature="0" />
      <path
         id="path7138"
         transform="matrix(0.1,0,0,-0.1,0,136)"
         d="m 1002.4219,619.21875 4.0625,31.32812 4.0234,31.5625 4.0625,31.32813 4.0234,30.58594 4.0625,29.375 4.0235,27.65625 4.0625,25.625 4.0234,23.125 4.0625,20.3125 4.0235,17.1875 4.0234,13.82812 4.0625,10.27344 4.0234,6.5625 4.0625,2.85156 4.0625,-0.97656 4.0235,-4.6875 4.0234,-8.28125 4.0625,-11.79688 4.0235,-15.03906 4.0625,-18.00781 4.0234,-20.70313 4.0625,-23.04687 4.0234,-25.03906 4.0625,-26.52344 4.0235,-27.69531 4.0625,-28.32032 4.0234,-28.59375 4.0625,-28.35937 4.0234,-27.65625 4.0625,-26.5625 4.0235,-25.07813 4.0625,-23.16406 4.0234,-20.9375 4.0625,-18.35937 4.0235,-15.54688 4.0625,-12.5 4.0234,-9.29687 4.0234,-5.97657 4.0625,-2.53906 4.0235,0.85938 4.0625,4.21875 4.0625,7.53906 4.0234,10.66406 4.0234,13.59375 4.0625,16.28906 4.0235,18.75 4.0625,20.85938 4.0234,22.61719 4.0625,24.0625 4.0235,25 4.0625,25.66406"
         style="fill:none;stroke:#000000;stroke-width:20.0007;stroke-linecap:butt;stroke-linejoin:round;stroke-miterlimit:10;stroke-opacity:1"
         inkscape:connector-curvature="0" />
      <path
         id="path7140"
         transform="matrix(0.1,0,0,-0.1,0,136)"
         d="m 1204.5313,630.58594 4.0625,25.66406 4.0234,25.85937 4.0234,25.66407 4.0625,25.03906 4.0625,24.02344 4.0235,22.69531 4.0625,20.9375 4.0234,18.94531 4.0625,16.60156 4.0234,14.10157 4.0235,11.32812 4.0625,8.39844 4.0625,5.39062 4.0234,2.30469 4.0235,-0.78125 4.0625,-3.82812 4.0234,-6.79688 4.0625,-9.64844 4.0234,-12.30468 4.0625,-14.76563 4.0235,-16.95312 4.0625,-18.86719 4.0234,-20.46875 4.0625,-21.75781 4.0234,-22.65625 4.0625,-23.20313 4.0235,-23.39844 4.0625,-23.20312 4.0234,-22.65625 4.0235,-21.75781 4.0625,-20.50782 4.0625,-18.98437 4.0234,-17.10938 4.0234,-15.07812 4.0625,-12.69531 4.0235,-10.27344 4.0625,-7.61719 4.0234,-4.84375 4.0625,-2.10937 4.0234,0.70312 4.0625,3.47656 4.0235,6.17188 4.0625,8.71094 4.0234,11.13281 4.0625,13.35937 4.0235,15.35157 4.0625,17.07031 4.0234,18.51562 4.0625,19.6875 4.0234,20.46875 4.0235,21.01563"
         style="fill:none;stroke:#000000;stroke-width:20.0007;stroke-linecap:butt;stroke-linejoin:round;stroke-miterlimit:10;stroke-opacity:1"
         inkscape:connector-curvature="0" />
      <path
         id="path7142"
         transform="matrix(0.1,0,0,-0.1,0,136)"
         d="m 1406.6406,639.92187 4.0235,21.01563 4.0625,21.17187 4.0625,21.01563 4.0234,20.46875 4.0625,19.6875 4.0234,18.55469 4.0235,17.1875 4.0625,15.50781 4.0234,13.59375 4.0625,11.52344 4.0235,9.25781 4.0625,6.91406 4.0234,4.41406 4.0625,1.875 4.0234,-0.625 4.0625,-3.16406 4.0235,-5.54687 4.0625,-7.89063 4.0234,-10.07812 4.0625,-12.10938 4.0234,-13.86719 4.0625,-15.46875 4.0235,-16.75781 4.0234,-17.77344 4.0625,-18.55468 4.0625,-19.02344 4.0235,-19.14063 4.0234,-18.98437 4.0625,-18.55469 4.0234,-17.8125 4.0625,-16.79687 4.0235,-15.54688 4.0625,-14.02344 4.0234,-12.30468 4.0625,-10.42969 4.0234,-8.39844 4.0625,-6.21094 4.0235,-3.98437 4.0625,-1.71875 4.0234,0.54687 4.0625,2.85157 4.0235,5.03906 4.0625,7.14844 4.0234,9.14062 4.0625,10.89844 4.0234,12.57812 4.0625,13.98438 4.0235,15.15625 4.0234,16.13281 4.0625,16.75781 4.0234,17.1875"
         style="fill:none;stroke:#000000;stroke-width:20.0007;stroke-linecap:butt;stroke-linejoin:round;stroke-miterlimit:10;stroke-opacity:1"
         inkscape:connector-curvature="0" />
      <path
         id="path7144"
         transform="matrix(0.1,0,0,-0.1,0,136)"
         d="m 1608.75,647.57812 4.0234,17.1875 4.0625,17.34375 4.0625,17.1875 4.0235,16.79688 4.0234,16.09375 4.0625,15.19531 4.0235,14.0625 4.0625,12.69531 4.0234,11.13282 4.0625,9.45312 4.0234,7.57813 4.0625,5.625 4.0235,3.63281 4.0625,1.5625 4.0234,-0.54688 4.0625,-2.53906 4.0234,-4.57031 4.0625,-6.48438 4.0235,-8.24218 4.0625,-9.88282 4.0234,-11.36718 4.0235,-12.65625 4.0625,-13.71094 4.0234,-14.57031 4.0625,-15.19532 4.0234,-15.58593 4.0625,-15.66407 4.0235,-15.54687 4.0625,-15.19531 4.0234,-14.57032 4.0625,-13.75 4.0234,-12.73437 4.0625,-11.48438 4.0235,-10.07812 4.0625,-8.55469 4.0234,-6.83594 4.0235,-5.11718 4.0625,-3.28125 4.0625,-1.40625 4.0234,0.50781 4.0234,2.30469 4.0625,4.14062 4.0625,5.85938 4.0235,7.46093 4.0234,8.94532 4.0625,10.27343 4.0234,11.44532 4.0625,12.42187 4.0235,13.20313 4.0625,13.75 4.0234,14.0625"
         style="fill:none;stroke:#000000;stroke-width:20.0007;stroke-linecap:butt;stroke-linejoin:round;stroke-miterlimit:10;stroke-opacity:1"
         inkscape:connector-curvature="0" />
      <path
         id="path7146"
         transform="matrix(0.1,0,0,-0.1,0,136)"
         d="m 1810.8594,653.86719 4.0234,14.0625 4.0625,14.17968 4.0235,14.0625 4.0625,13.75 4.0234,13.20313 4.0625,12.42187 4.0234,11.52344 4.0625,10.39063 4.0235,9.10156 4.0625,7.73437 4.0234,6.21094 4.0625,4.64844 4.0234,2.92969 4.0235,1.28906 4.0625,-0.42969 4.0625,-2.10937 4.0234,-3.75 4.0235,-5.27344 4.0625,-6.75781 4.0625,-8.08594 4.0234,-9.33594 4.0234,-10.35156 4.0625,-11.21094 4.0235,-11.95312 4.0625,-12.42188 4.0234,-12.73437 4.0234,-12.85157 4.0625,-12.73437 4.0625,-12.42188 4.0235,-11.95312 4.0625,-11.25 4.0234,-10.42969 4.0625,-9.375 4.0235,-8.28125 4.0234,-6.99219 4.0625,-5.625 4.0234,-4.14062 4.0625,-2.69531 4.0235,-1.13282 4.0625,0.35157 4.0234,1.91406 4.0625,3.39844 4.0234,4.76562 4.0625,6.13281 4.0235,7.34375 4.0625,8.39844 4.0234,9.375 4.0625,10.15625 4.0235,10.82031 4.0625,11.25 4.0234,11.52344"
         style="fill:none;stroke:#000000;stroke-width:20.0007;stroke-linecap:butt;stroke-linejoin:round;stroke-miterlimit:10;stroke-opacity:1"
         inkscape:connector-curvature="0" />
      <path
         id="path7148"
         transform="matrix(0.1,0,0,-0.1,0,136)"
         d="m 2012.9688,658.98437 4.0234,11.52344 4.0625,11.60156 4.0234,11.52344 4.0235,11.25 4.0625,10.82031 4.0625,10.19532 4.0234,9.41406 4.0625,8.47656 4.0234,7.5 4.0625,6.28906 4.0235,5.11719 4.0234,3.75 4.0625,2.42188 4.0235,1.05468 4.0625,-0.35156 4.0234,-1.71875 4.0625,-3.04687 4.0234,-4.33594 4.0625,-5.54688 4.0235,-6.64062 4.0625,-7.61719 4.0234,-8.47656 4.0625,-9.17969 4.0234,-9.76562 4.0235,-10.19532 4.0625,-10.42968 4.0625,-10.50782 4.0234,-10.42968 4.0625,-10.15625 4.0235,-9.80469 4.0234,-9.21875 4.0625,-8.51563 4.0234,-7.69531 4.0625,-6.75781 4.0235,-5.70313 4.0625,-4.64843 4.0234,-3.39844 4.0625,-2.1875 4.0234,-0.9375 4.0625,0.3125 4.0235,1.5625 4.0625,2.77344 4.0234,3.90625 4.0625,5 4.0235,6.01562 4.0625,6.875 4.0234,7.69531 4.0625,8.32032 4.0234,8.82812 4.0625,9.21875 4.0235,9.45313"
         style="fill:none;stroke:#000000;stroke-width:20.0007;stroke-linecap:butt;stroke-linejoin:round;stroke-miterlimit:10;stroke-opacity:1"
         inkscape:connector-curvature="0" />
      <path
         id="path7150"
         transform="matrix(0.1,0,0,-0.1,0,136)"
         d="m 2215.0781,663.16406 4.0235,9.45313 4.0234,9.49218 4.0625,9.45313 4.0234,9.17969 4.0625,8.86718 4.0625,8.32032 4.0235,7.73437 4.0234,6.95313 4.0625,6.13281 4.0235,5.15625 4.0625,4.17969 4.0234,3.08593 4.0625,1.99219 4.0234,0.85938 4.0625,-0.3125 4.0235,-1.40625 4.0625,-2.5 4.0234,-3.55469 4.0625,-4.53125 4.0234,-5.42969 4.0625,-6.21094 4.0235,-6.95312 4.0234,-7.53906 4.0625,-8.00782 4.0235,-8.32031 4.0625,-8.55469 4.0625,-8.59375 4.0234,-8.55468 4.0234,-8.32032 4.0625,-8.00781 4.0235,-7.53906 4.0625,-6.99219 4.0234,-6.28906 4.0625,-5.54688 4.0234,-4.6875 4.0625,-3.75 4.0235,-2.8125 4.0625,-1.79687 4.0234,-0.74219 4.0625,0.23438 4.0235,1.28906 4.0625,2.26562 4.0234,3.20313 4.0234,4.10156 4.0625,4.92188 4.0625,5.625 4.0235,6.28906 4.0234,6.79687 4.0625,7.26563 4.0234,7.53906 4.0625,7.73438"
         style="fill:none;stroke:#000000;stroke-width:20.0007;stroke-linecap:butt;stroke-linejoin:round;stroke-miterlimit:10;stroke-opacity:1"
         inkscape:connector-curvature="0" />
      <path
         id="path7152"
         transform="matrix(0.1,0,0,-0.1,0,136)"
         d="m 2417.1484,666.60156 4.0625,7.73438 4.0235,7.77343"
         style="fill:none;stroke:#000000;stroke-width:20.0007;stroke-linecap:butt;stroke-linejoin:round;stroke-miterlimit:10;stroke-opacity:1"
         inkscape:connector-curvature="0" />
      <path
         id="path7154"
         transform="matrix(0.1,0,0,-0.1,0,136)"
         d="m 0,1364.2188 4.023438,-2.7344 4.0625,-2.6953 4.023437,-2.7344 4.0625,-2.6563 4.023438,-2.6953 4.0625,-2.6562 4.023437,-2.6563 4.0625,-2.6562 4.023438,-2.6563 4.0625,-2.6172 4.023437,-2.6171 4.0625,-2.6172 4.023438,-2.5782 4.0625,-2.5781 4.023437,-2.5781 4.0625,-2.5781 4.023438,-2.5391 4.0625,-2.5391 4.023437,-2.539 4.0625,-2.5391 8.046875,-5 4.0625,-2.5 4.023438,-2.4609 4.062502,-2.5 4.0625,-2.461 4.02344,-2.4609 4.02343,-2.4219 4.0625,-2.4609 4.02344,-2.4219 4.0625,-2.4219 4.02344,-2.3828 4.0625,-2.4218 4.02343,-2.3829 4.0625,-2.3437 4.02344,-2.3828 4.0625,-2.3438 4.02344,-2.3437 4.0625,-2.3828 4.02344,-2.3047 4.0625,-2.3047 4.02343,-2.3438 4.0625,-2.3046 4.02344,-2.2657 4.0625,-2.3047 8.04688,-4.5312 4.0625,-2.2656 4.02343,-2.2266"
         style="fill:none;stroke:#7f7f7f;stroke-width:20.0007;stroke-linecap:butt;stroke-linejoin:round;stroke-miterlimit:10;stroke-opacity:1"
         inkscape:connector-curvature="0" />
      <path
         id="path7156"
         transform="matrix(0.1,0,0,-0.1,0,136)"
         d="m 194.02344,1245.0391 4.02343,-2.2266 4.0625,-2.2266 4.02344,-2.2265 4.0625,-2.2266 4.02344,-2.2265 4.0625,-2.1875 4.02344,-2.2266 4.0625,-2.1875 4.02343,-2.1484 4.0625,-2.1875 4.02344,-2.1485 4.0625,-2.1484 4.02344,-2.1485 4.0625,-2.1484 8.04687,-4.2187 4.0625,-2.1094 4.02344,-2.1094 4.0625,-2.0703 4.02344,-2.1094 4.0625,-2.0703 4.02344,-2.0703 4.0625,-2.0313 4.02343,-2.0703 4.0625,-2.0312 4.02344,-2.0313 4.0625,-2.0312 4.02344,-2.0313 4.0625,-1.9922 4.02344,-1.9921 4.0625,-1.9922 4.02343,-1.9922 4.0625,-1.9922 4.02344,-1.9531 4.0625,-1.9532 4.02344,-1.9921 4.02344,-1.9141 4.0625,-1.9531 4.02343,-1.9141 4.0625,-1.9141 4.02344,-1.914 4.0625,-1.9141 4.02344,-1.914 4.0625,-1.875 4.02344,-1.9141 4.0625,-1.875 4.02343,-1.875 4.0625,-1.8359 4.02344,-1.875 4.0625,-1.836 4.02344,-1.8359"
         style="fill:none;stroke:#7f7f7f;stroke-width:20.0007;stroke-linecap:butt;stroke-linejoin:round;stroke-miterlimit:10;stroke-opacity:1"
         inkscape:connector-curvature="0" />
      <path
         id="path7158"
         transform="matrix(0.1,0,0,-0.1,0,136)"
         d="m 396.13281,1143.0078 4.02344,-1.8359 4.0625,-1.836 4.02344,-1.8359 4.0625,-1.7969 4.02343,-1.8359 4.0625,-1.7969 8.04688,-3.5937 4.0625,-1.7578 4.0625,-1.7969 4.02344,-1.7578 4.0625,-1.7578 8.04687,-3.5157 4.0625,-1.7187 4.02344,-1.7578 4.0625,-1.7188 4.02344,-1.7187 4.0625,-1.6797 4.02343,-1.7188 4.0625,-1.6797 4.02344,-1.7187 4.0625,-1.6797 4.02344,-1.6797 4.0625,-1.6797 4.02344,-1.6797 4.0625,-1.6406 4.02343,-1.6406 4.0625,-1.6406 4.02344,-1.6407 4.0625,-1.6406 4.02344,-1.6406 4.0625,-1.6016 8.04687,-3.2031 4.0625,-1.6016 4.02344,-1.6015 4.0625,-1.6016 4.02344,-1.5625 4.0625,-1.6015 4.02344,-1.5625 4.0625,-1.5625 4.02343,-1.5235 4.0625,-1.5625 4.02344,-1.5234 4.0625,-1.5625 4.02344,-1.5235 4.0625,-1.5234 4.02344,-1.5234 4.0625,-1.5235 4.02343,-1.4843"
         style="fill:none;stroke:#7f7f7f;stroke-width:20.0007;stroke-linecap:butt;stroke-linejoin:round;stroke-miterlimit:10;stroke-opacity:1"
         inkscape:connector-curvature="0" />
      <path
         id="path7160"
         transform="matrix(0.1,0,0,-0.1,0,136)"
         d="m 598.24219,1059.4531 4.02343,-1.4843 4.0625,-1.5235 4.02344,-1.4844 4.0625,-1.4843 8.04688,-2.9688 4.0625,-1.4844 4.02343,-1.4453 4.0625,-1.4453 4.02344,-1.4844 4.0625,-1.4453 4.02344,-1.4453 4.0625,-1.4062 4.02344,-1.4453 4.0625,-1.4454 4.02343,-1.4062 4.0625,-1.4063 4.02344,-1.4062 4.0625,-1.4063 4.02344,-1.3671 4.0625,-1.4063 4.02344,-1.3672 4.0625,-1.4062 4.02343,-1.3672 4.0625,-1.3672 8.04688,-2.7344 4.0625,-1.3281 4.02344,-1.3672 4.0625,-1.3281 4.02343,-1.3282 4.0625,-1.3281 4.02344,-1.3281 4.0625,-1.3281 4.02344,-1.3282 4.0625,-1.289 4.02344,-1.3281 4.0625,-1.2891 4.02343,-1.2891 4.0625,-1.289 4.02344,-1.2891 4.0625,-1.2891 4.02344,-1.24995 4.0625,-1.28906 4.02344,-1.25 4.0625,-1.25 8.04687,-2.5 4.0625,-1.25 4.02344,-1.25 4.0625,-1.21094"
         style="fill:none;stroke:#7f7f7f;stroke-width:20.0007;stroke-linecap:butt;stroke-linejoin:round;stroke-miterlimit:10;stroke-opacity:1"
         inkscape:connector-curvature="0" />
      <path
         id="path7162"
         transform="matrix(0.1,0,0,-0.1,0,136)"
         d="m 800.3125,991.05469 4.0625,-1.21094 4.0625,-1.25 4.02344,-1.21094 4.02343,-1.25 4.0625,-1.21094 4.02344,-1.17187 4.0625,-1.21094 4.02344,-1.21094 4.0625,-1.21093 4.02344,-1.17188 4.0625,-1.17187 4.02343,-1.21094 4.0625,-1.17188 4.02344,-1.17187 4.0625,-1.17188 4.02344,-1.13281 4.0625,-1.17187 4.02344,-1.13282 4.0625,-1.17187 4.02343,-1.13281 4.0625,-1.13282 4.02344,-1.13281 4.0625,-1.13281 8.04688,-2.26563 4.0625,-1.09375 4.02343,-1.13281 4.0625,-1.09375 4.02344,-1.09375 4.0625,-1.09375 4.02344,-1.09375 4.0625,-1.09375 4.02344,-1.09375 4.0625,-1.09375 4.02343,-1.05469 4.0625,-1.09375 4.02344,-1.05468 4.0625,-1.05469 4.02344,-1.05469 4.0625,-1.05469 4.02344,-1.05468 4.0625,-1.05469 4.02343,-1.05469 4.0625,-1.01562 4.02344,-1.05469 4.02344,-1.01563 4.0625,-1.01562 4.02344,-1.05469 4.0625,-1.01562 4.02346,-1.01563 4.0625,-0.97656"
         style="fill:none;stroke:#7f7f7f;stroke-width:20.0007;stroke-linecap:butt;stroke-linejoin:round;stroke-miterlimit:10;stroke-opacity:1"
         inkscape:connector-curvature="0" />
      <path
         id="path7164"
         transform="matrix(0.1,0,0,-0.1,0,136)"
         d="m 1002.4219,935.03906 4.0625,-0.97656 4.0234,-1.01563 4.0625,-1.01562 4.0234,-0.97656 4.0625,-1.01563 4.0235,-0.97656 4.0625,-0.97656 4.0234,-0.97657 4.0625,-1.01562 4.0235,-0.97656 4.0234,-0.9375 4.0625,-0.97657 4.0234,-0.97656 4.0625,-0.9375 4.0625,-0.97656 8.0469,-1.875 4.0625,-0.9375 4.0235,-0.9375 4.0625,-0.9375 4.0234,-0.9375 4.0625,-0.9375 4.0234,-0.9375 4.0625,-0.89844 4.0235,-0.9375 4.0625,-0.89844 4.0234,-0.9375 4.0625,-0.89843 4.0234,-0.89844 4.0625,-0.89844 4.0235,-0.89844 4.0625,-0.89843 4.0234,-0.85938 4.0625,-0.89844 4.0235,-0.85937 4.0625,-0.89844 4.0234,-0.85937 4.0234,-0.89844 4.0625,-0.85938 4.0235,-0.85937 8.125,-1.71875 8.0468,-1.71875 4.0625,-0.82031 4.0235,-0.85938 4.0625,-0.82031 4.0234,-0.85938 4.0625,-0.82031 4.0235,-0.82031 4.0625,-0.85938"
         style="fill:none;stroke:#7f7f7f;stroke-width:20.0007;stroke-linecap:butt;stroke-linejoin:round;stroke-miterlimit:10;stroke-opacity:1"
         inkscape:connector-curvature="0" />
      <path
         id="path7166"
         transform="matrix(0.1,0,0,-0.1,0,136)"
         d="m 1204.5313,889.21875 4.0625,-0.85938 8.0468,-1.64062 4.0625,-0.82031 4.0625,-0.78125 4.0235,-0.82032 4.0625,-0.82031 4.0234,-0.78125 4.0625,-0.82031 4.0234,-0.78125 4.0235,-0.82031 8.125,-1.5625 8.0469,-1.5625 4.0625,-0.78125 4.0234,-0.78125 4.0625,-0.78125 4.0234,-0.74219 4.0625,-0.78125 4.0235,-0.74219 4.0625,-0.78125 4.0234,-0.74219 4.0625,-0.78125 4.0234,-0.74218 4.0625,-0.74219 4.0235,-0.74219 4.0625,-0.74219 8.0469,-1.48437 4.0625,-0.74219 4.0625,-0.70312 4.0234,-0.74219 4.0234,-0.70313 4.0625,-0.74218 4.0235,-0.70313 4.0625,-0.74219 4.0234,-0.70312 4.0625,-0.70313 4.0234,-0.70312 4.0625,-0.70313 4.0235,-0.70312 4.0625,-0.70313 4.0234,-0.70312 4.0625,-0.70313 4.0235,-0.66406 4.0625,-0.70312 4.0234,-0.70313 4.0625,-0.66406 4.0234,-0.66406 4.0235,-0.70313"
         style="fill:none;stroke:#7f7f7f;stroke-width:20.0007;stroke-linecap:butt;stroke-linejoin:round;stroke-miterlimit:10;stroke-opacity:1"
         inkscape:connector-curvature="0" />
      <path
         id="path7168"
         transform="matrix(0.1,0,0,-0.1,0,136)"
         d="m 1406.6406,851.67969 4.0235,-0.70313 8.125,-1.32812 4.0234,-0.66407 4.0625,-0.66406 8.0469,-1.32812 4.0625,-0.66407 4.0234,-0.66406 4.0625,-0.625 4.0235,-0.66406 4.0625,-0.66406 4.0234,-0.625 4.0625,-0.66407 4.0234,-0.625 4.0625,-0.66406 4.0235,-0.625 4.0625,-0.625 4.0234,-0.625 4.0625,-0.625 4.0234,-0.625 4.0625,-0.625 8.0469,-1.25 4.0625,-0.625 4.0625,-0.58594 4.0235,-0.625 4.0234,-0.58593 4.0625,-0.625 4.0234,-0.58594 4.0625,-0.625 4.0235,-0.58594 4.0625,-0.58594 4.0234,-0.58593 4.0625,-0.58594 4.0234,-0.58594 4.0625,-0.625 4.0235,-0.54687 4.0625,-0.58594 4.0234,-0.58594 4.0625,-0.58594 4.0235,-0.58593 4.0625,-0.54688 4.0234,-0.58594 4.0625,-0.54687 4.0234,-0.58594 4.0625,-0.54687 4.0235,-0.58594 4.0234,-0.54688 4.0625,-0.54687 4.0234,-0.54688"
         style="fill:none;stroke:#7f7f7f;stroke-width:20.0007;stroke-linecap:butt;stroke-linejoin:round;stroke-miterlimit:10;stroke-opacity:1"
         inkscape:connector-curvature="0" />
      <path
         id="path7170"
         transform="matrix(0.1,0,0,-0.1,0,136)"
         d="m 1608.75,820.9375 4.0234,-0.54688 4.0625,-0.58593 4.0625,-0.54688 8.0469,-1.09375 4.0625,-0.50781 4.0235,-0.54688 4.0625,-0.54687 4.0234,-0.54688 4.0625,-0.54687 4.0234,-0.50781 4.0625,-0.54688 4.0235,-0.50781 4.0625,-0.54688 4.0234,-0.50781 4.0625,-0.54687 4.0234,-0.50782 4.0625,-0.50781 4.0235,-0.50781 4.0625,-0.50781 4.0234,-0.54688 4.0235,-0.50781 4.0625,-0.50781 4.0234,-0.46875 4.0625,-0.50782 4.0234,-0.50781 4.0625,-0.50781 4.0235,-0.50781 4.0625,-0.46875 4.0234,-0.50782 4.0625,-0.50781 4.0234,-0.46875 4.0625,-0.50781 4.0235,-0.46875 4.0625,-0.46875 4.0234,-0.50781 4.0235,-0.46875 8.125,-0.9375 4.0234,-0.50782 4.0234,-0.46875 8.125,-0.9375 8.0469,-0.9375 4.0625,-0.42968 4.0234,-0.46875 4.0625,-0.46875 4.0235,-0.46875 4.0625,-0.42969 4.0234,-0.46875"
         style="fill:none;stroke:#7f7f7f;stroke-width:20.0007;stroke-linecap:butt;stroke-linejoin:round;stroke-miterlimit:10;stroke-opacity:1"
         inkscape:connector-curvature="0" />
      <path
         id="path7172"
         transform="matrix(0.1,0,0,-0.1,0,136)"
         d="m 1810.8594,795.78125 4.0234,-0.46875 4.0625,-0.46875 4.0235,-0.42969 4.0625,-0.46875 4.0234,-0.42969 4.0625,-0.42968 4.0234,-0.46875 4.0625,-0.42969 4.0235,-0.42969 4.0625,-0.46875 4.0234,-0.42969 4.0625,-0.42968 8.0469,-0.85938 8.125,-0.85937 4.0234,-0.42969 4.0235,-0.39063 8.125,-0.85937 8.0468,-0.85938 4.0625,-0.39062 4.0235,-0.42969 4.0625,-0.39062 4.0234,-0.42969 4.0234,-0.39063 4.0625,-0.42968 4.0625,-0.39063 4.0235,-0.39062 4.0625,-0.42969 4.0234,-0.39063 4.0625,-0.39062 4.0235,-0.39063 4.0234,-0.42968 4.0625,-0.39063 4.0234,-0.39062 4.0625,-0.39063 4.0235,-0.39062 4.0625,-0.39063 4.0234,-0.39062 4.0625,-0.35157 4.0234,-0.39062 4.0625,-0.39063 4.0235,-0.39062 4.0625,-0.35156 4.0234,-0.39063 4.0625,-0.39062 4.0235,-0.35157 4.0625,-0.39062 4.0234,-0.35156"
         style="fill:none;stroke:#7f7f7f;stroke-width:20.0007;stroke-linecap:butt;stroke-linejoin:round;stroke-miterlimit:10;stroke-opacity:1"
         inkscape:connector-curvature="0" />
      <path
         id="path7174"
         transform="matrix(0.1,0,0,-0.1,0,136)"
         d="m 2012.9688,775.15625 4.0234,-0.35156 4.0625,-0.39063 4.0234,-0.35156 4.0235,-0.39063 8.125,-0.70312 4.0234,-0.39063 4.0625,-0.35156 4.0234,-0.35156 4.0625,-0.35156 4.0235,-0.39063 4.0234,-0.3125 4.0625,-0.39062 4.0235,-0.35157 4.0625,-0.35156 4.0234,-0.3125 4.0625,-0.35156 4.0234,-0.35156 4.0625,-0.35157 4.0235,-0.35156 4.0625,-0.35156 4.0234,-0.3125 4.0625,-0.35156 4.0234,-0.35157 4.0235,-0.3125 8.125,-0.70312 4.0234,-0.3125 4.0625,-0.35156 4.0235,-0.3125 4.0234,-0.35157 4.0625,-0.3125 4.0234,-0.3125 4.0625,-0.35156 4.0235,-0.3125 4.0625,-0.3125 4.0234,-0.35156 4.0625,-0.3125 4.0234,-0.3125 4.0625,-0.3125 4.0235,-0.3125 4.0625,-0.3125 4.0234,-0.3125 4.0625,-0.3125 4.0235,-0.3125 4.0625,-0.3125 4.0234,-0.3125 4.0625,-0.3125 4.0234,-0.3125 4.0625,-0.3125 4.0235,-0.3125"
         style="fill:none;stroke:#7f7f7f;stroke-width:20.0007;stroke-linecap:butt;stroke-linejoin:round;stroke-miterlimit:10;stroke-opacity:1"
         inkscape:connector-curvature="0" />
      <path
         id="path7176"
         transform="matrix(0.1,0,0,-0.1,0,136)"
         d="m 2215.0781,758.28125 4.0235,-0.3125 4.0234,-0.27344 4.0625,-0.3125 4.0234,-0.3125 4.0625,-0.27344 4.0625,-0.3125 4.0235,-0.3125 4.0234,-0.27343 4.0625,-0.3125 4.0235,-0.27344 4.0625,-0.27344 4.0234,-0.3125 4.0625,-0.27344 4.0234,-0.3125 4.0625,-0.27343 4.0235,-0.3125 4.0625,-0.27344 4.0234,-0.27344 4.0625,-0.27344 4.0234,-0.3125 4.0625,-0.27343 8.0469,-0.54688 4.0625,-0.27344 4.0235,-0.27343 8.125,-0.54688 8.0468,-0.54687 4.0625,-0.27344 4.0235,-0.27344 4.0625,-0.27344 4.0234,-0.27343 4.0625,-0.27344 4.0234,-0.23438 4.0625,-0.27343 4.0235,-0.27344 4.0625,-0.27344 4.0234,-0.23437 4.0625,-0.27344 4.0235,-0.27344 4.0625,-0.23437 4.0234,-0.27344 4.0234,-0.23438 4.0625,-0.27343 4.0625,-0.23438 4.0235,-0.27344 4.0234,-0.23437 4.0625,-0.27344 4.0234,-0.23437 4.0625,-0.27344"
         style="fill:none;stroke:#7f7f7f;stroke-width:20.0007;stroke-linecap:butt;stroke-linejoin:round;stroke-miterlimit:10;stroke-opacity:1"
         inkscape:connector-curvature="0" />
      <path
         id="path7178"
         transform="matrix(0.1,0,0,-0.1,0,136)"
         d="m 2417.1484,744.49219 4.0625,-0.27344 4.0235,-0.23438"
         style="fill:none;stroke:#7f7f7f;stroke-width:20.0007;stroke-linecap:butt;stroke-linejoin:round;stroke-miterlimit:10;stroke-opacity:1"
         inkscape:connector-curvature="0" />
      <path
         id="path7180"
         transform="matrix(0.1,0,0,-0.1,0,136)"
         d="m 0,0 4.023438,2.734375 4.0625,2.695313 4.023437,2.734375 4.0625,2.65625 4.023438,2.695312 4.0625,2.65625 4.023437,2.65625 4.0625,2.65625 4.023438,2.65625 4.0625,2.617188 4.023437,2.617187 4.0625,2.617188 4.023438,2.578125 4.0625,2.578125 4.023437,2.578125 4.0625,2.578125 4.023438,2.539062 4.0625,2.539063 4.023437,2.539062 4.0625,2.539063 8.046875,5 4.0625,2.5 4.023438,2.5 8.125002,4.921875 4.02344,2.460937 4.02343,2.421875 4.0625,2.460938 4.02344,2.421875 4.0625,2.421875 4.02344,2.382812 4.0625,2.421875 4.02343,2.382813 4.0625,2.382812 4.02344,2.34375 4.0625,2.34375 4.02344,2.34375 4.0625,2.382813 4.02344,2.304692 4.0625,2.30468 4.02343,2.34375 4.0625,2.30469 4.02344,2.26563 4.0625,2.30468 8.04688,4.53125 4.0625,2.26563 4.02343,2.22656"
         style="fill:none;stroke:#7f7f7f;stroke-width:20.0007;stroke-linecap:butt;stroke-linejoin:round;stroke-miterlimit:10;stroke-opacity:1"
         inkscape:connector-curvature="0" />
      <path
         id="path7182"
         transform="matrix(0.1,0,0,-0.1,0,136)"
         d="m 194.02344,119.17969 4.02343,2.22656 4.0625,2.22656 4.02344,2.26563 4.0625,2.1875 4.02344,2.22656 4.0625,2.22656 4.02344,2.14844 4.0625,2.22656 4.02343,2.14844 4.0625,2.1875 4.02344,2.14844 4.0625,2.14843 4.02344,2.14844 4.0625,2.14844 8.04687,4.21875 4.0625,2.10937 4.02344,2.10938 4.0625,2.07031 4.02344,2.10938 4.0625,2.07031 4.02344,2.07031 4.0625,2.03125 4.02343,2.07031 4.0625,2.03125 4.02344,2.03125 4.0625,2.03125 4.02344,2.03125 4.0625,1.99219 4.02344,1.99219 4.0625,1.99219 4.02343,1.99218 4.0625,1.99219 4.02344,1.95313 4.0625,1.95312 8.04688,3.90625 4.0625,1.95313 4.02343,1.91406 4.0625,1.91406 4.02344,1.91406 4.0625,1.91407 4.02344,1.91406 4.0625,1.875 4.02344,1.91406 4.0625,1.875 4.02343,1.875 4.0625,1.83594 4.02344,1.875 4.0625,1.83594 4.02344,1.83593"
         style="fill:none;stroke:#7f7f7f;stroke-width:20.0007;stroke-linecap:butt;stroke-linejoin:round;stroke-miterlimit:10;stroke-opacity:1"
         inkscape:connector-curvature="0" />
      <path
         id="path7184"
         transform="matrix(0.1,0,0,-0.1,0,136)"
         d="m 396.13281,221.21094 4.02344,1.83593 4.0625,1.83594 4.02344,1.83594 4.0625,1.79687 4.02343,1.83594 4.0625,1.79688 8.04688,3.59375 4.0625,1.75781 4.0625,1.79687 4.02344,1.75782 4.0625,1.75781 8.04687,3.51562 4.0625,1.71875 4.02344,1.71875 4.0625,1.75782 4.02344,1.71875 4.0625,1.67968 4.02343,1.71875 4.0625,1.71875 4.02344,1.67969 4.0625,1.67969 4.02344,1.67969 4.0625,1.67968 4.02344,1.64063 4.0625,1.67969 4.02343,1.64062 4.0625,1.64063 4.02344,1.64062 4.0625,1.64063 4.02344,1.64062 4.0625,1.60156 8.04687,3.20313 4.0625,1.60156 4.02344,1.60156 4.0625,1.60157 4.02344,1.5625 4.0625,1.5625 4.02344,1.60156 4.0625,1.5625 4.02343,1.52344 4.0625,1.5625 4.02344,1.5625 4.0625,1.52343 4.02344,1.52344 4.0625,1.52344 4.02344,1.52344 4.0625,1.52343 4.02343,1.48438"
         style="fill:none;stroke:#7f7f7f;stroke-width:20.0007;stroke-linecap:butt;stroke-linejoin:round;stroke-miterlimit:10;stroke-opacity:1"
         inkscape:connector-curvature="0" />
      <path
         id="path7186"
         transform="matrix(0.1,0,0,-0.1,0,136)"
         d="m 598.24219,304.76562 4.02343,1.48438 4.0625,1.52344 4.02344,1.48437 4.0625,1.48438 8.04688,2.96875 4.0625,1.48437 4.02343,1.44531 4.0625,1.44532 4.02344,1.48437 4.0625,1.40625 4.02344,1.48438 4.0625,1.40625 4.02344,1.44531 4.0625,1.40625 4.02343,1.44531 4.0625,1.40625 4.02344,1.40625 4.0625,1.40625 4.02344,1.40625 4.0625,1.36719 4.02344,1.40625 4.0625,1.36719 4.02343,1.36718 4.0625,1.36719 8.04688,2.73438 4.0625,1.32812 4.02344,1.36719 4.0625,1.32812 4.02343,1.32813 4.0625,1.32812 4.02344,1.32813 4.0625,1.32812 4.02344,1.32813 4.0625,1.28906 4.02344,1.32813 4.0625,1.28906 4.02343,1.28906 4.0625,1.28906 4.02344,1.28907 4.0625,1.28906 4.02344,1.25 4.0625,1.28906 4.02344,1.25 4.0625,1.25 8.04687,2.5 4.0625,1.25 4.02344,1.25 4.0625,1.21094"
         style="fill:none;stroke:#7f7f7f;stroke-width:20.0007;stroke-linecap:butt;stroke-linejoin:round;stroke-miterlimit:10;stroke-opacity:1"
         inkscape:connector-curvature="0" />
      <path
         id="path7188"
         transform="matrix(0.1,0,0,-0.1,0,136)"
         d="m 800.3125,373.16406 4.0625,1.21094 4.0625,1.25 8.04687,2.42187 4.0625,1.25 4.02344,1.17188 4.0625,1.21094 4.02344,1.21093 4.0625,1.21094 4.02344,1.17188 4.0625,1.17187 4.02343,1.21094 4.0625,1.17187 4.02344,1.17188 4.0625,1.17187 4.02344,1.13282 4.0625,1.17187 4.02344,1.13281 4.0625,1.17188 4.02343,1.13281 4.0625,1.13281 4.02344,1.13282 4.0625,1.13281 8.04688,2.26562 4.0625,1.09375 4.02343,1.13282 4.0625,1.09375 4.02344,1.09375 4.0625,1.09375 4.02344,1.09375 4.0625,1.09375 4.02344,1.09375 4.0625,1.09375 4.02343,1.05468 4.0625,1.09375 4.02344,1.05469 4.0625,1.05469 4.02344,1.05469 4.0625,1.05468 4.02344,1.05469 4.0625,1.05469 4.02343,1.05469 4.0625,1.01562 4.02344,1.05469 4.02344,1.01562 4.0625,1.01563 4.02344,1.05469 4.0625,1.01562 4.02346,1.01563 4.0625,0.97656"
         style="fill:none;stroke:#7f7f7f;stroke-width:20.0007;stroke-linecap:butt;stroke-linejoin:round;stroke-miterlimit:10;stroke-opacity:1"
         inkscape:connector-curvature="0" />
      <path
         id="path7190"
         transform="matrix(0.1,0,0,-0.1,0,136)"
         d="m 1002.4219,429.17969 4.0625,0.97656 4.0234,1.01562 4.0625,1.01563 4.0234,0.97656 4.0625,1.01563 4.0235,0.97656 4.0625,0.97656 4.0234,1.01563 4.0625,0.9375 4.0235,1.01562 4.0234,0.9375 4.0625,0.97656 4.0234,0.97657 4.0625,0.9375 4.0625,0.97656 8.0469,1.875 4.0625,0.9375 4.0235,0.9375 4.0625,0.9375 4.0234,0.9375 4.0625,0.9375 4.0234,0.9375 4.0625,0.89844 4.0235,0.9375 4.0625,0.89843 4.0234,0.9375 4.0625,0.89844 4.0234,0.89844 4.0625,0.89844 4.0235,0.89843 4.0625,0.89844 4.0234,0.85938 4.0625,0.89843 4.0235,0.85938 4.0625,0.89844 4.0234,0.85937 4.0234,0.89844 4.0625,0.85937 4.0235,0.85938 8.125,1.71875 8.0468,1.71875 4.0625,0.82031 4.0235,0.85938 4.0625,0.82031 4.0234,0.85937 4.0625,0.82032 4.0235,0.82031 4.0625,0.85937"
         style="fill:none;stroke:#7f7f7f;stroke-width:20.0007;stroke-linecap:butt;stroke-linejoin:round;stroke-miterlimit:10;stroke-opacity:1"
         inkscape:connector-curvature="0" />
      <path
         id="path7192"
         transform="matrix(0.1,0,0,-0.1,0,136)"
         d="m 1204.5313,475 4.0625,0.85937 8.0468,1.64063 4.0625,0.82031 4.0625,0.78125 4.0235,0.82031 4.0625,0.82032 4.0234,0.78125 4.0625,0.82031 4.0234,0.78125 4.0235,0.82031 8.125,1.5625 8.0469,1.5625 4.0625,0.78125 4.0234,0.78125 4.0625,0.78125 4.0234,0.78125 4.0625,0.74219 4.0235,0.74219 4.0625,0.78125 4.0234,0.74218 4.0625,0.78125 4.0234,0.74219 4.0625,0.74219 4.0235,0.74219 4.0625,0.74218 8.0469,1.48438 4.0625,0.74219 4.0625,0.70312 4.0234,0.74219 4.0234,0.70312 4.0625,0.74219 4.0235,0.70313 4.0625,0.74218 4.0234,0.70313 4.0625,0.70312 4.0234,0.70313 4.0625,0.70312 4.0235,0.70313 4.0625,0.70312 4.0234,0.70313 4.0625,0.70312 4.0235,0.66407 4.0625,0.70312 4.0234,0.66406 4.0625,0.70313 4.0234,0.66406 4.0235,0.70313"
         style="fill:none;stroke:#7f7f7f;stroke-width:20.0007;stroke-linecap:butt;stroke-linejoin:round;stroke-miterlimit:10;stroke-opacity:1"
         inkscape:connector-curvature="0" />
      <path
         id="path7194"
         transform="matrix(0.1,0,0,-0.1,0,136)"
         d="m 1406.6406,512.53906 4.0235,0.70313 8.125,1.32812 4.0234,0.66406 4.0625,0.66407 8.0469,1.32812 4.0625,0.66406 4.0234,0.66407 4.0625,0.625 4.0235,0.66406 4.0625,0.66406 4.0234,0.625 4.0625,0.66406 4.0234,0.625 4.0625,0.625 4.0235,0.66407 4.0625,0.625 4.0234,0.625 4.0625,0.625 4.0234,0.625 4.0625,0.625 8.0469,1.25 4.0625,0.58593 4.0625,0.625 4.0235,0.625 4.0234,0.58594 4.0625,0.625 4.0234,0.58594 4.0625,0.625 4.0235,0.58594 4.0625,0.58593 4.0234,0.58594 4.0625,0.58594 4.0234,0.625 4.0625,0.58594 4.0235,0.58593 4.0625,0.54688 4.0234,0.58594 4.0625,0.58593 4.0235,0.58594 4.0625,0.54688 4.0234,0.58593 4.0625,0.54688 4.0234,0.58594 4.0625,0.54687 4.0235,0.58594 4.0234,0.54687 4.0625,0.54688 4.0234,0.54687"
         style="fill:none;stroke:#7f7f7f;stroke-width:20.0007;stroke-linecap:butt;stroke-linejoin:round;stroke-miterlimit:10;stroke-opacity:1"
         inkscape:connector-curvature="0" />
      <path
         id="path7196"
         transform="matrix(0.1,0,0,-0.1,0,136)"
         d="m 1608.75,543.28125 4.0234,0.54687 4.0625,0.58594 4.0625,0.54688 8.0469,1.09375 4.0625,0.50781 4.0235,0.54687 4.0625,0.54688 4.0234,0.54687 4.0625,0.54688 4.0234,0.50781 4.0625,0.54688 4.0235,0.50781 4.0625,0.54687 4.0234,0.50782 4.0625,0.54687 4.0234,0.50781 4.0625,0.50782 4.0235,0.50781 4.0625,0.54687 4.0234,0.50782 4.0235,0.46875 4.0625,0.50781 4.0234,0.50781 4.0625,0.50781 4.0234,0.50782 4.0625,0.50781 4.0235,0.50781 4.0625,0.46875 4.0234,0.50781 4.0625,0.50782 4.0234,0.46875 4.0625,0.50781 4.0235,0.46875 4.0625,0.46875 4.0234,0.50781 4.0235,0.46875 4.0625,0.46875 4.0625,0.50781 8.0468,0.9375 8.125,0.9375 8.0469,0.9375 4.0625,0.42969 4.0234,0.46875 4.0625,0.46875 4.0235,0.46875 4.0625,0.42969 4.0234,0.46875"
         style="fill:none;stroke:#7f7f7f;stroke-width:20.0007;stroke-linecap:butt;stroke-linejoin:round;stroke-miterlimit:10;stroke-opacity:1"
         inkscape:connector-curvature="0" />
      <path
         id="path7198"
         transform="matrix(0.1,0,0,-0.1,0,136)"
         d="m 1810.8594,568.4375 4.0234,0.46875 4.0625,0.46875 4.0235,0.42969 4.0625,0.46875 4.0234,0.42968 4.0625,0.42969 4.0234,0.46875 4.0625,0.42969 4.0235,0.42969 4.0625,0.46875 4.0234,0.42968 4.0625,0.42969 8.0469,0.85938 8.125,0.85937 8.0469,0.85938 4.0625,0.39062 4.0625,0.42969 4.0234,0.42969 4.0234,0.39062 4.0625,0.42969 4.0235,0.42969 4.0625,0.39062 4.0234,0.42969 4.0234,0.39062 4.0625,0.42969 4.0625,0.39063 4.0235,0.39062 4.0625,0.42969 4.0234,0.39062 4.0625,0.39063 4.0235,0.39062 4.0234,0.42969 4.0625,0.39063 4.0234,0.39062 4.0625,0.39063 4.0235,0.39062 4.0625,0.39063 4.0234,0.39062 4.0625,0.35156 4.0234,0.39063 4.0625,0.39062 4.0235,0.39063 4.0625,0.35156 4.0234,0.39063 4.0625,0.39062 4.0235,0.35156 4.0625,0.39063 4.0234,0.35156"
         style="fill:none;stroke:#7f7f7f;stroke-width:20.0007;stroke-linecap:butt;stroke-linejoin:round;stroke-miterlimit:10;stroke-opacity:1"
         inkscape:connector-curvature="0" />
      <path
         id="path7200"
         transform="matrix(0.1,0,0,-0.1,0,136)"
         d="m 2012.9688,589.0625 4.0234,0.35156 4.0625,0.39063 4.0234,0.35156 4.0235,0.39062 8.125,0.70313 4.0234,0.39062 4.0625,0.35157 4.0234,0.35156 4.0625,0.35156 8.0469,0.70313 4.0625,0.39062 4.0235,0.35156 4.0625,0.35157 4.0234,0.3125 4.0625,0.35156 4.0234,0.35156 4.0625,0.35156 4.0235,0.35157 4.0625,0.35156 4.0234,0.3125 4.0625,0.35156 4.0234,0.35156 4.0235,0.3125 8.125,0.70313 4.0234,0.3125 4.0625,0.35156 4.0235,0.3125 4.0234,0.35156 4.0625,0.3125 4.0234,0.3125 4.0625,0.35157 4.0235,0.3125 4.0625,0.3125 4.0234,0.3125 4.0625,0.35156 4.0234,0.3125 4.0625,0.3125 4.0235,0.3125 4.0625,0.3125 4.0234,0.3125 4.0625,0.3125 4.0235,0.3125 4.0625,0.3125 4.0234,0.3125 4.0625,0.3125 4.0234,0.3125 4.0625,0.3125 4.0235,0.27344"
         style="fill:none;stroke:#7f7f7f;stroke-width:20.0007;stroke-linecap:butt;stroke-linejoin:round;stroke-miterlimit:10;stroke-opacity:1"
         inkscape:connector-curvature="0" />
      <path
         id="path7202"
         transform="matrix(0.1,0,0,-0.1,0,136)"
         d="m 2215.0781,605.9375 4.0235,0.27344 4.0234,0.3125 4.0625,0.3125 4.0234,0.3125 4.0625,0.27343 4.0625,0.3125 4.0235,0.27344 4.0234,0.3125 4.0625,0.3125 4.0235,0.27344 4.0625,0.27344 4.0234,0.3125 4.0625,0.27343 4.0234,0.3125 4.0625,0.27344 4.0235,0.3125 4.0625,0.27344 4.0234,0.27344 4.0625,0.27343 4.0234,0.27344 4.0625,0.3125 8.0469,0.54688 4.0625,0.27343 4.0235,0.27344 8.125,0.54688 8.0468,0.54687 4.0625,0.27344 4.0235,0.27344 4.0625,0.27343 4.0234,0.27344 4.0625,0.27344 4.0234,0.27344 4.0625,0.23437 4.0235,0.27344 4.0625,0.27344 4.0234,0.23437 4.0625,0.27344 4.0235,0.27344 4.0625,0.23437 4.0234,0.27344 4.0234,0.23437 4.0625,0.27344 4.0625,0.23438 4.0235,0.27343 4.0234,0.23438 4.0625,0.27344 4.0234,0.23437 4.0625,0.27344"
         style="fill:none;stroke:#7f7f7f;stroke-width:20.0007;stroke-linecap:butt;stroke-linejoin:round;stroke-miterlimit:10;stroke-opacity:1"
         inkscape:connector-curvature="0" />
      <path
         id="path7204"
         transform="matrix(0.1,0,0,-0.1,0,136)"
         d="m 2417.1484,619.72656 4.0625,0.27344 4.0235,0.23437"
         style="fill:none;stroke:#7f7f7f;stroke-width:20.0007;stroke-linecap:butt;stroke-linejoin:round;stroke-miterlimit:10;stroke-opacity:1"
         inkscape:connector-curvature="0" />
    </g>
    <path
       style="fill:none;fill-rule:evenodd;stroke:#000000;stroke-width:2.16699982;stroke-linecap:butt;stroke-linejoin:miter;stroke-miterlimit:4;stroke-dasharray:none;stroke-opacity:1;marker-end:url(#Arrow1Send)"
       d="m 90,371.36224 446.10926,0"
       id="path7112-7"
       inkscape:connector-curvature="0" />
    <text
       xml:space="preserve"
       style="font-style:normal;font-variant:normal;font-weight:normal;font-stretch:normal;font-size:20px;line-height:125%;font-family:Arial;-inkscape-font-specification:Arial;letter-spacing:0px;word-spacing:0px;fill:#000000;fill-opacity:1;stroke:none;stroke-width:1px;stroke-linecap:butt;stroke-linejoin:miter;stroke-opacity:1"
       x="495"
       y="389.43329"
       id="text7588"
       sodipodi:linespacing="125%"><tspan
         sodipodi:role="line"
         id="tspan7590"
         x="495"
         y="389.43329">Time</tspan></text>
    <text
       xml:space="preserve"
       style="font-style:normal;font-variant:normal;font-weight:normal;font-stretch:normal;font-size:20px;line-height:125%;font-family:Arial;-inkscape-font-specification:Arial;letter-spacing:0px;word-spacing:0px;fill:#000000;fill-opacity:1;stroke:none;stroke-width:1px;stroke-linecap:butt;stroke-linejoin:miter;stroke-opacity:1"
       x="29.601563"
       y="373.15323"
       id="text7588-2"
       sodipodi:linespacing="125%"><tspan
         sodipodi:role="line"
         id="tspan7590-5"
         x="29.601563"
         y="373.15323">Signal</tspan></text>
    <g
       ns0:preamble=""
       ns0:text="$e^{- t/ T_{2}^{*}}$"
       word-spacing="normal"
       letter-spacing="normal"
       font-size-adjust="none"
       font-stretch="normal"
       font-weight="normal"
       font-variant="normal"
       font-style="normal"
       stroke-miterlimit="10.433"
       xml:space="preserve"
       transform="matrix(2.2123869,0,0,-2.2123869,-244.29845,1877.1819)"
       id="content"
       style="font-style:normal;font-variant:normal;font-weight:normal;font-stretch:normal;letter-spacing:normal;word-spacing:normal;text-anchor:start;fill:none;fill-opacity:1;fill-rule:evenodd;stroke:#000000;stroke-linecap:butt;stroke-linejoin:miter;stroke-miterlimit:10.43299961;stroke-dasharray:none;stroke-dashoffset:0;stroke-opacity:1">
<path
   id="path7845"
   d="m 225.3,709.42 0.02,0 0.04,0 0.03,0 0.03,0.01 0.04,0 0.04,0 0.04,0 0.05,0 0.04,0 0.05,0.01 0.05,0 0.04,0 0.05,0.01 0.06,0 0.1,0.01 0.11,0.01 0.11,0.02 0.1,0.02 0.11,0.02 0.11,0.02 0.05,0.02 0.05,0.01 0.06,0.02 0.04,0.02 0.05,0.01 0.05,0.02 c 0.7,0.3 0.75,0.89 0.75,1.03 0,0.44 -0.38,0.84 -1.07,0.84 l 0,-0.22 c 0.47,0 0.74,-0.28 0.74,-0.62 0,-1.04 -1.59,-1.04 -2,-1.04 l -0.41,0 c 0.39,1.52 1.41,1.66 1.67,1.66 l 0,0.22 c -1.1,0 -2.61,-0.96 -2.61,-2.7 0,-1.02 0.59,-1.8 1.57,-1.8 1.42,0 2.26,1.05 2.26,1.17 0,0.06 -0.06,0.13 -0.12,0.13 -0.05,0 -0.07,-0.02 -0.13,-0.1 -0.79,-0.99 -1.87,-0.99 -1.99,-0.99 -0.78,0 -0.87,0.84 -0.87,1.16 0,0.12 0.01,0.43 0.16,1.03 z"
   inkscape:connector-curvature="0"
   style="fill:#000000;stroke-width:0" />
<path
   id="path7847"
   d="m 233.25,712.31 0.01,0 0.01,0 0.02,0 0.01,0 0.02,0 0.01,0 0.01,0 0.01,0 0.02,0.01 0.01,0 0.01,0 0.01,0 0.01,0 0.01,0.01 0.01,0 0.01,0.01 0.01,0 0.01,0.01 0.01,0 0.01,0.01 0.01,0.01 0.01,0 0,0.01 0,0 0.01,0.01 0,0 0,0.01 0,0 0.01,0.01 0,0 0,0.01 0,0 0.01,0.01 0,0.01 0,0 0,0.01 0,0.01 0,0 0,0.01 0,0.01 c 0,0.17 -0.16,0.17 -0.28,0.17 l -4.15,0 c -0.11,0 -0.28,0 -0.28,-0.17 0,-0.17 0.16,-0.17 0.28,-0.17 z"
   inkscape:connector-curvature="0"
   style="fill:#000000;stroke-width:0" />
<path
   id="path7849"
   d="m 236.01,713.49 0.71,0 c 0.13,0 0.22,0 0.22,0.15 0,0.1 -0.09,0.1 -0.2,0.1 l -0.67,0 0.26,1.03 c 0.01,0.03 0.02,0.07 0.02,0.09 0,0.13 -0.09,0.23 -0.23,0.23 -0.18,0 -0.28,-0.12 -0.33,-0.3 -0.05,-0.18 0.04,0.16 -0.27,-1.05 l -0.71,0 c -0.13,0 -0.22,0 -0.22,-0.16 0,-0.09 0.08,-0.09 0.21,-0.09 l 0.66,0 -0.41,-1.64 c -0.04,-0.18 -0.1,-0.43 -0.1,-0.52 0,-0.41 0.34,-0.66 0.74,-0.66 0.77,0 1.21,0.97 1.21,1.06 0,0.1 -0.09,0.1 -0.11,0.1 -0.08,0 -0.09,-0.02 -0.14,-0.14 -0.2,-0.43 -0.55,-0.83 -0.94,-0.83 -0.14,0 -0.24,0.1 -0.24,0.35 0,0.07 0.03,0.21 0.04,0.28 z"
   inkscape:connector-curvature="0"
   style="fill:#000000;stroke-width:0" />
<path
   id="path7851"
   d="m 240.8,715.65 0,0 0,0.01 0,0 0,0 0.01,0.01 0,0 0,0.01 0,0 0,0 0,0.01 0.01,0 0,0 0,0.01 0,0 0,0.01 0.01,0 0,0.01 0,0 0,0.01 0,0 0,0 0,0.01 0,0 0.01,0 0,0.01 0,0 0,0 0,0.01 0,0 0,0 0,0.01 0,0 0,0.01 0,0 c 0,0.11 -0.09,0.18 -0.17,0.18 -0.12,0 -0.15,-0.09 -0.19,-0.18 l -2.59,-6.47 c -0.05,-0.09 -0.05,-0.11 -0.05,-0.13 0,-0.12 0.09,-0.18 0.17,-0.18 0.12,0 0.15,0.09 0.19,0.18 z"
   inkscape:connector-curvature="0"
   style="fill:#000000;stroke-width:0" />
<path
   id="path7853"
   d="m 244.77,714.95 0.01,0.01 0,0.01 0,0 0,0.01 0,0.01 0.01,0.01 0,0.01 0,0 0.01,0.02 0,0.01 0,0.01 0.01,0.02 0,0.01 0,0.01 0.01,0.01 0,0.01 0.01,0 0,0.01 0.01,0.01 0,0.01 0.01,0 0,0.01 0.01,0 0.01,0.01 0,0 0.01,0 0.01,0.01 0.01,0 0.01,0 0.01,0 0.01,0.01 0.01,0 0.01,0 0.01,0 0.02,0 0.01,0 c 0.03,0.01 0.28,0.01 0.42,0.01 0.42,0 0.6,0 0.78,-0.05 0.31,-0.1 0.32,-0.3 0.32,-0.55 0,-0.12 0,-0.21 -0.04,-0.57 l -0.02,-0.07 c 0,-0.07 0.05,-0.11 0.12,-0.11 0.11,0 0.12,0.06 0.13,0.18 l 0.19,1.32 c 0,0.1 -0.08,0.1 -0.21,0.1 l -4.28,0 c -0.17,0 -0.19,0 -0.24,-0.15 l -0.44,-1.23 c 0,-0.02 -0.03,-0.09 -0.03,-0.12 0,-0.03 0.01,-0.1 0.12,-0.1 0.09,0 0.1,0.04 0.14,0.17 0.41,1.11 0.64,1.18 1.7,1.18 l 0.29,0 c 0.21,0 0.21,-0.01 0.21,-0.07 0,-0.01 0,-0.04 -0.02,-0.15 l -0.92,-3.65 c -0.06,-0.26 -0.09,-0.33 -0.82,-0.33 -0.25,0 -0.31,0 -0.31,-0.15 0,-0.02 0.01,-0.1 0.12,-0.1 0.19,0 0.4,0.02 0.6,0.02 0.19,0 0.4,0.01 0.6,0.01 0.19,0 0.43,0 0.62,-0.01 0.19,-0.01 0.4,-0.02 0.59,-0.02 0.05,0 0.16,0 0.16,0.15 0,0.1 -0.07,0.1 -0.29,0.1 -0.13,0 -0.27,0.01 -0.4,0.01 -0.24,0.03 -0.25,0.05 -0.25,0.14 0,0.04 0,0.06 0.02,0.16 z"
   inkscape:connector-curvature="0"
   style="fill:#000000;stroke-width:0" />
<path
   id="path7855"
   d="m 249.08,715.12 0,0 0,0.01 0,0.01 0,0 0.01,0.01 0,0.01 0,0.01 0,0.01 0,0.02 0,0.02 0.01,0.03 0,0.03 0,0.02 0.01,0.03 0,0.03 0,0.04 0.01,0.03 0,0.03 0.01,0.07 0.01,0.06 0,0.04 0.01,0.03 0,0.03 0,0.03 0.01,0.02 0,0.03 0,0.03 0,0.02 0.01,0.01 0,0.01 0,0.01 0,0.01 0,0 0,0.01 0,0.01 0,0 0,0.01 0,0 0,0.01 0,0 c 0,0.09 -0.07,0.16 -0.17,0.16 -0.11,0 -0.18,-0.08 -0.18,-0.16 0,-0.05 0.08,-0.68 0.09,-0.78 l -0.77,0.46 c -0.05,0.03 -0.07,0.04 -0.11,0.04 -0.08,0 -0.17,-0.07 -0.17,-0.18 0,-0.08 0.05,-0.13 0.1,-0.15 0.28,-0.11 0.56,-0.21 0.84,-0.3 -0.28,-0.11 -0.74,-0.27 -0.82,-0.3 -0.04,-0.02 -0.12,-0.05 -0.12,-0.16 0,-0.11 0.09,-0.18 0.17,-0.18 0.05,0 0.21,0.09 0.88,0.5 -0.01,-0.1 -0.09,-0.73 -0.09,-0.78 0,-0.08 0.07,-0.15 0.18,-0.15 0.1,0 0.17,0.06 0.17,0.16 0,0.04 -0.08,0.68 -0.09,0.77 l 0.79,-0.47 c 0.03,-0.02 0.05,-0.03 0.1,-0.03 0.08,0 0.17,0.07 0.17,0.18 0,0.08 -0.05,0.13 -0.11,0.15 -0.27,0.11 -0.55,0.21 -0.83,0.3 0.28,0.11 0.73,0.27 0.82,0.31 0.03,0.01 0.12,0.04 0.12,0.15 0,0.11 -0.09,0.18 -0.17,0.18 -0.05,0 -0.07,-0.01 -0.12,-0.04 z"
   inkscape:connector-curvature="0"
   style="fill:#000000;stroke-width:0" />
<path
   id="path7857"
   d="m 249.02,709.71 -0.2,0 c -0.02,-0.1 -0.07,-0.41 -0.15,-0.45 -0.04,-0.04 -0.46,-0.04 -0.53,-0.04 l -0.98,0 c 0.33,0.25 0.7,0.53 1,0.73 0.45,0.3 0.86,0.59 0.86,1.12 0,0.63 -0.6,0.99 -1.31,0.99 -0.67,0 -1.16,-0.39 -1.16,-0.88 0,-0.26 0.22,-0.3 0.29,-0.3 0.13,0 0.29,0.09 0.29,0.29 0,0.18 -0.13,0.28 -0.28,0.3 0.14,0.22 0.42,0.37 0.76,0.37 0.48,0 0.88,-0.29 0.88,-0.78 0,-0.41 -0.29,-0.73 -0.67,-1.05 l -1.21,-1.03 c -0.05,-0.05 -0.06,-0.05 -0.06,-0.08 l 0,-0.15 2.31,0 z"
   inkscape:connector-curvature="0"
   style="fill:#000000;stroke-width:0" />
</g>  </g>
</svg>
