<?xml version="1.0" encoding="UTF-8" standalone="no"?>
<!-- Created with Inkscape (http://www.inkscape.org/) -->

<svg
   xmlns:ns0="http://www.iki.fi/pav/software/textext/"
   xmlns:dc="http://purl.org/dc/elements/1.1/"
   xmlns:cc="http://creativecommons.org/ns#"
   xmlns:rdf="http://www.w3.org/1999/02/22-rdf-syntax-ns#"
   xmlns:svg="http://www.w3.org/2000/svg"
   xmlns="http://www.w3.org/2000/svg"
   xmlns:sodipodi="http://sodipodi.sourceforge.net/DTD/sodipodi-0.dtd"
   xmlns:inkscape="http://www.inkscape.org/namespaces/inkscape"
   width="210mm"
   height="297mm"
   viewBox="0 0 744.09448819 1052.3622047"
   id="svg2"
   version="1.1"
   inkscape:version="0.91 r13725"
   sodipodi:docname="multi-echo-multi-spoke-blip.svg"
   inkscape:export-filename="H:\Publications\Thesis\fig\multi-echo-multi-spoke-blip.png"
   inkscape:export-xdpi="300"
   inkscape:export-ydpi="300">
  <sodipodi:namedview
     id="base"
     pagecolor="#ffffff"
     bordercolor="#666666"
     borderopacity="1.0"
     inkscape:pageopacity="1"
     inkscape:pageshadow="2"
     inkscape:zoom="2.8"
     inkscape:cx="204.20309"
     inkscape:cy="772.82259"
     inkscape:document-units="px"
     inkscape:current-layer="layer1"
     showgrid="false"
     inkscape:window-width="1600"
     inkscape:window-height="1138"
     inkscape:window-x="1592"
     inkscape:window-y="-8"
     inkscape:window-maximized="1">
    <inkscape:grid
       id="grid4136"
       type="xygrid" />
  </sodipodi:namedview>
  <defs
     id="defs4">
    <marker
       inkscape:isstock="true"
       style="overflow:visible;"
       id="marker4577"
       refX="0.0"
       refY="0.0"
       orient="auto"
       inkscape:stockid="Arrow1Mend">
      <path
         transform="scale(0.4) rotate(180) translate(10,0)"
         style="fill-rule:evenodd;stroke:#00ffff;stroke-width:1pt;stroke-opacity:1;fill:#00ffff;fill-opacity:1"
         d="M 0.0,0.0 L 5.0,-5.0 L -12.5,0.0 L 5.0,5.0 L 0.0,0.0 z "
         id="path4579" />
    </marker>
    <marker
       inkscape:isstock="true"
       style="overflow:visible;"
       id="marker4551"
       refX="0.0"
       refY="0.0"
       orient="auto"
       inkscape:stockid="Arrow1Mend">
      <path
         transform="scale(0.4) rotate(180) translate(10,0)"
         style="fill-rule:evenodd;stroke:#ff0000;stroke-width:1pt;stroke-opacity:1;fill:#ff0000;fill-opacity:1"
         d="M 0.0,0.0 L 5.0,-5.0 L -12.5,0.0 L 5.0,5.0 L 0.0,0.0 z "
         id="path4553" />
    </marker>
    <marker
       inkscape:isstock="true"
       style="overflow:visible;"
       id="marker4529"
       refX="0.0"
       refY="0.0"
       orient="auto"
       inkscape:stockid="Arrow1Mend">
      <path
         transform="scale(0.4) rotate(180) translate(10,0)"
         style="fill-rule:evenodd;stroke:#00ff00;stroke-width:1pt;stroke-opacity:1;fill:#00ff00;fill-opacity:1"
         d="M 0.0,0.0 L 5.0,-5.0 L -12.5,0.0 L 5.0,5.0 L 0.0,0.0 z "
         id="path4531" />
    </marker>
    <marker
       inkscape:isstock="true"
       style="overflow:visible;"
       id="marker4430"
       refX="0.0"
       refY="0.0"
       orient="auto"
       inkscape:stockid="Arrow1Mend">
      <path
         transform="scale(0.4) rotate(180) translate(10,0)"
         style="fill-rule:evenodd;stroke:#000000;stroke-width:1pt;stroke-opacity:1;fill:#000000;fill-opacity:1"
         d="M 0.0,0.0 L 5.0,-5.0 L -12.5,0.0 L 5.0,5.0 L 0.0,0.0 z "
         id="path4432" />
    </marker>
    <marker
       inkscape:isstock="true"
       style="overflow:visible;"
       id="Arrow1Mend"
       refX="0.0"
       refY="0.0"
       orient="auto"
       inkscape:stockid="Arrow1Mend">
      <path
         transform="scale(0.4) rotate(180) translate(10,0)"
         style="fill-rule:evenodd;stroke:#000000;stroke-width:1pt;stroke-opacity:1;fill:#000000;fill-opacity:1"
         d="M 0.0,0.0 L 5.0,-5.0 L -12.5,0.0 L 5.0,5.0 L 0.0,0.0 z "
         id="path4157" />
    </marker>
  </defs>
  <metadata
     id="metadata7">
    <rdf:RDF>
      <cc:Work
         rdf:about="">
        <dc:format>image/svg+xml</dc:format>
        <dc:type
           rdf:resource="http://purl.org/dc/dcmitype/StillImage" />
        <dc:title />
      </cc:Work>
    </rdf:RDF>
  </metadata>
  <g
     id="layer1"
     inkscape:groupmode="layer"
     inkscape:label="Layer 1">
    <path
       inkscape:connector-curvature="0"
       id="path4140"
       d="m 100,312.3622 258.35513,0"
       style="fill:none;fill-rule:evenodd;stroke:#000000;stroke-width:0.9;stroke-linecap:butt;stroke-linejoin:miter;stroke-opacity:1;marker-end:url(#marker4430);stroke-miterlimit:4;stroke-dasharray:none" />
    <path
       inkscape:connector-curvature="0"
       id="path4142"
       d="m 139.79296,352.3622 0,-198.43882"
       style="fill:none;fill-rule:evenodd;stroke:#000000;stroke-width:0.85768765;stroke-linecap:butt;stroke-linejoin:miter;stroke-miterlimit:4;stroke-dasharray:none;stroke-opacity:1;marker-end:url(#Arrow1Mend)" />
    <g
       ns0:preamble=""
       ns0:text="$k_x$"
       word-spacing="normal"
       letter-spacing="normal"
       font-size-adjust="none"
       font-stretch="normal"
       font-weight="normal"
       font-variant="normal"
       font-style="normal"
       stroke-miterlimit="10.433"
       xml:space="preserve"
       transform="matrix(1.4167634,0,0,-1.4167634,27.367627,1306.7659)"
       id="content"
       style="font-style:normal;font-variant:normal;font-weight:normal;font-stretch:normal;letter-spacing:normal;word-spacing:normal;text-anchor:start;fill:none;fill-opacity:1;fill-rule:evenodd;stroke:#000000;stroke-linecap:butt;stroke-linejoin:miter;stroke-miterlimit:10.43299961;stroke-dasharray:none;stroke-dashoffset:0;stroke-opacity:1">
<path
   id="path4471"
   d="m 226.29,713.92 0,0 0,0 0,0.01 0,0 0,0 0,0 0,0.01 0,0 0,0 0,0.01 0,0 0,0.01 0,0 -0.01,0.01 0,0 0,0.01 0,0 -0.01,0.01 0,0 0,0.01 -0.01,0 0,0 0,0 -0.01,0.01 0,0 0,0 -0.01,0 0,0 0,0.01 -0.01,0 0,0 0,0 -0.01,0 0,0 -0.01,0.01 0,0 0,0 -0.01,0 0,0 -0.01,0 0,0 -0.01,0 -0.01,0 0,0 -0.01,0 c -0.23,0 -0.95,-0.08 -1.21,-0.1 -0.08,-0.01 -0.19,-0.02 -0.19,-0.2 0,-0.12 0.09,-0.12 0.24,-0.12 0.48,0 0.49,-0.07 0.49,-0.16 l -0.02,-0.2 -1.45,-5.74 c -0.04,-0.14 -0.04,-0.16 -0.04,-0.22 0,-0.22 0.2,-0.27 0.29,-0.27 0.13,0 0.28,0.08 0.34,0.2 0.05,0.09 0.5,1.94 0.56,2.18 0.34,-0.03 1.15,-0.18 1.15,-0.84 0,-0.07 0,-0.11 -0.03,-0.21 -0.02,-0.12 -0.04,-0.24 -0.04,-0.35 0,-0.59 0.4,-0.98 0.92,-0.98 0.3,0 0.57,0.15 0.79,0.52 0.25,0.44 0.36,0.99 0.36,1.01 0,0.1 -0.09,0.1 -0.12,0.1 -0.1,0 -0.11,-0.04 -0.14,-0.18 -0.2,-0.73 -0.43,-1.24 -0.87,-1.24 -0.19,0 -0.32,0.11 -0.32,0.47 0,0.17 0.04,0.4 0.08,0.56 0.04,0.17 0.04,0.21 0.04,0.31 0,0.65 -0.63,0.93 -1.48,1.04 0.31,0.18 0.63,0.5 0.86,0.74 0.48,0.53 0.94,0.95 1.43,0.95 0.06,0 0.07,0 0.09,-0.01 0.12,-0.01 0.13,-0.01 0.21,-0.07 0.02,-0.01 0.02,-0.02 0.04,-0.04 -0.48,-0.03 -0.57,-0.42 -0.57,-0.54 0,-0.16 0.11,-0.35 0.38,-0.35 0.26,0 0.55,0.22 0.55,0.61 0,0.3 -0.23,0.62 -0.68,0.62 -0.28,0 -0.74,-0.08 -1.46,-0.87 -0.34,-0.38 -0.73,-0.78 -1.1,-0.93 z"
   inkscape:connector-curvature="0"
   style="fill:#000000;stroke-width:0" />
<path
   id="path4473"
   d="m 230.35,706.37 0,-0.02 -0.01,-0.03 -0.01,-0.02 -0.01,-0.03 -0.01,-0.02 -0.01,-0.03 -0.02,-0.02 -0.01,-0.03 -0.01,-0.02 -0.02,-0.03 -0.01,-0.02 -0.02,-0.03 -0.02,-0.02 -0.02,-0.03 -0.02,-0.02 -0.02,-0.03 -0.02,-0.02 -0.02,-0.02 -0.02,-0.02 -0.03,-0.02 -0.02,-0.02 -0.03,-0.02 -0.02,-0.02 -0.03,-0.01 -0.03,-0.02 -0.02,-0.01 -0.03,-0.01 -0.03,-0.01 -0.03,0 -0.04,-0.01 -0.03,0 -0.03,0 c -0.02,0 -0.23,0 -0.38,0.09 0.29,0.09 0.31,0.34 0.31,0.39 0,0.15 -0.12,0.25 -0.28,0.25 -0.2,0 -0.4,-0.16 -0.4,-0.42 0,-0.35 0.39,-0.51 0.73,-0.51 0.33,0 0.61,0.2 0.78,0.49 0.17,-0.36 0.55,-0.49 0.83,-0.49 0.8,0 1.23,0.87 1.23,1.07 0,0.09 -0.09,0.09 -0.11,0.09 -0.1,0 -0.11,-0.04 -0.14,-0.12 -0.14,-0.48 -0.56,-0.84 -0.95,-0.84 -0.28,0 -0.42,0.18 -0.42,0.45 0,0.18 0.16,0.81 0.36,1.58 0.14,0.54 0.45,0.71 0.68,0.71 0.02,0 0.23,0 0.38,-0.09 -0.23,-0.07 -0.31,-0.26 -0.31,-0.39 0,-0.15 0.12,-0.25 0.28,-0.25 0.16,0 0.39,0.13 0.39,0.42 0,0.39 -0.45,0.51 -0.72,0.51 -0.35,0 -0.63,-0.23 -0.78,-0.5 -0.13,0.29 -0.45,0.5 -0.84,0.5 -0.78,0 -1.23,-0.86 -1.23,-1.07 0,-0.09 0.1,-0.09 0.12,-0.09 0.09,0 0.1,0.03 0.13,0.12 0.18,0.54 0.62,0.84 0.96,0.84 0.23,0 0.42,-0.12 0.42,-0.46 0,-0.13 -0.09,-0.48 -0.15,-0.72 z"
   inkscape:connector-curvature="0"
   style="fill:#000000;stroke-width:0" />
</g>    <g
       style="font-style:normal;font-variant:normal;font-weight:normal;font-stretch:normal;letter-spacing:normal;word-spacing:normal;text-anchor:start;fill:none;fill-opacity:1;fill-rule:evenodd;stroke:#000000;stroke-linecap:butt;stroke-linejoin:miter;stroke-miterlimit:10.43299961;stroke-dasharray:none;stroke-dashoffset:0;stroke-opacity:1"
       id="g4503"
       transform="matrix(1.3238276,0,0,-1.3238276,-151.75933,1100.8284)"
       xml:space="preserve"
       stroke-miterlimit="10.433"
       font-style="normal"
       font-variant="normal"
       font-weight="normal"
       font-stretch="normal"
       font-size-adjust="none"
       letter-spacing="normal"
       word-spacing="normal"
       ns0:text="$k_y$"
       ns0:preamble="">
<path
   style="fill:#000000;stroke-width:0"
   inkscape:connector-curvature="0"
   d="m 226.29,713.92 0,0 0,0 0,0.01 0,0 0,0 0,0 0,0.01 0,0 0,0 0,0.01 0,0 0,0.01 0,0 -0.01,0.01 0,0 0,0.01 0,0 -0.01,0.01 0,0 0,0.01 -0.01,0 0,0 0,0 -0.01,0.01 0,0 0,0 -0.01,0 0,0 0,0.01 -0.01,0 0,0 0,0 -0.01,0 0,0 -0.01,0.01 0,0 0,0 -0.01,0 0,0 -0.01,0 0,0 -0.01,0 -0.01,0 0,0 -0.01,0 c -0.23,0 -0.95,-0.08 -1.21,-0.1 -0.08,-0.01 -0.19,-0.02 -0.19,-0.2 0,-0.12 0.09,-0.12 0.24,-0.12 0.48,0 0.49,-0.07 0.49,-0.16 l -0.02,-0.2 -1.45,-5.74 c -0.04,-0.14 -0.04,-0.16 -0.04,-0.22 0,-0.22 0.2,-0.27 0.29,-0.27 0.13,0 0.28,0.08 0.34,0.2 0.05,0.09 0.5,1.94 0.56,2.18 0.34,-0.03 1.15,-0.18 1.15,-0.84 0,-0.07 0,-0.11 -0.03,-0.21 -0.02,-0.12 -0.04,-0.24 -0.04,-0.35 0,-0.59 0.4,-0.98 0.92,-0.98 0.3,0 0.57,0.15 0.79,0.52 0.25,0.44 0.36,0.99 0.36,1.01 0,0.1 -0.09,0.1 -0.12,0.1 -0.1,0 -0.11,-0.04 -0.14,-0.18 -0.2,-0.73 -0.43,-1.24 -0.87,-1.24 -0.19,0 -0.32,0.11 -0.32,0.47 0,0.17 0.04,0.4 0.08,0.56 0.04,0.17 0.04,0.21 0.04,0.31 0,0.65 -0.63,0.93 -1.48,1.04 0.31,0.18 0.63,0.5 0.86,0.74 0.48,0.53 0.94,0.95 1.43,0.95 0.06,0 0.07,0 0.09,-0.01 0.12,-0.01 0.13,-0.01 0.21,-0.07 0.02,-0.01 0.02,-0.02 0.04,-0.04 -0.48,-0.03 -0.57,-0.42 -0.57,-0.54 0,-0.16 0.11,-0.35 0.38,-0.35 0.26,0 0.55,0.22 0.55,0.61 0,0.3 -0.23,0.62 -0.68,0.62 -0.28,0 -0.74,-0.08 -1.46,-0.87 -0.34,-0.38 -0.73,-0.78 -1.1,-0.93 z"
   id="path4505" />
<path
   style="fill:#000000;stroke-width:0"
   inkscape:connector-curvature="0"
   d="m 232.49,708.25 0,0.01 0,0 0,0.01 0.01,0 0,0 0,0.01 0,0.01 0,0 0,0.01 0.01,0.01 0,0 0,0.01 0,0 0,0.01 0,0 0,0.01 0,0 0,0.01 0.01,0 0,0 0,0.01 0,0 0,0 0,0.01 0,0.01 0,0 0,0.01 0,0 0,0.01 0,0 0,0.01 c 0,0.13 -0.11,0.22 -0.23,0.22 -0.08,0 -0.21,-0.04 -0.29,-0.17 -0.02,-0.04 -0.07,-0.26 -0.11,-0.4 l -0.14,-0.58 c -0.05,-0.17 -0.26,-1.04 -0.28,-1.12 -0.01,0 -0.32,-0.6 -0.86,-0.6 -0.47,0 -0.47,0.45 -0.47,0.57 0,0.38 0.16,0.82 0.37,1.35 0.08,0.23 0.12,0.31 0.12,0.43 0,0.33 -0.29,0.59 -0.67,0.59 -0.7,0 -1.01,-0.95 -1.01,-1.07 0,-0.09 0.09,-0.09 0.12,-0.09 0.09,0 0.1,0.04 0.12,0.11 0.17,0.58 0.47,0.85 0.75,0.85 0.12,0 0.18,-0.07 0.18,-0.24 0,-0.16 -0.07,-0.31 -0.1,-0.4 -0.34,-0.85 -0.4,-1.11 -0.4,-1.42 0,-0.11 0,-0.44 0.27,-0.66 0.21,-0.18 0.51,-0.22 0.69,-0.22 0.28,0 0.53,0.11 0.76,0.31 -0.09,-0.38 -0.16,-0.67 -0.46,-1.02 -0.19,-0.21 -0.46,-0.44 -0.83,-0.44 -0.05,0 -0.38,0 -0.53,0.23 0.38,0.04 0.38,0.37 0.38,0.38 0,0.22 -0.2,0.26 -0.27,0.26 -0.17,0 -0.4,-0.14 -0.4,-0.46 0,-0.35 0.33,-0.61 0.82,-0.61 0.71,0 1.56,0.55 1.78,1.41 z"
   id="path4507" />
</g>    <path
       inkscape:connector-curvature="0"
       id="path4525"
       d="m 99.998035,332.36611 39.648575,-19.82429 39.64857,-19.82429 39.64858,-19.82428 39.64857,-19.82429"
       style="fill:none;fill-rule:evenodd;stroke:#ff0000;stroke-width:0.991;stroke-linecap:butt;stroke-linejoin:miter;stroke-opacity:1;marker-end:url(#marker4551);stroke-miterlimit:4;stroke-dasharray:none" />
    <path
       inkscape:connector-curvature="0"
       id="path4527"
       d="m 200,192.36218 -20,40 -20,40 -20,40 -20,40"
       style="fill:none;fill-rule:evenodd;stroke:#00ff00;stroke-width:1px;stroke-linecap:butt;stroke-linejoin:miter;stroke-opacity:1;marker-end:url(#marker4529)" />
    <path
       inkscape:connector-curvature="0"
       id="path4575"
       d="M 260.00614,252.36832 201.04798,193.41016"
       style="fill:none;fill-rule:evenodd;stroke:#00ffff;stroke-width:0.98263603px;stroke-linecap:butt;stroke-linejoin:miter;stroke-opacity:1;marker-end:url(#marker4577)" />
    <path
       inkscape:connector-curvature="0"
       id="path4603"
       d="m 260,252.36218 60,60"
       style="fill:none;fill-rule:evenodd;stroke:#000000;stroke-width:1;stroke-linecap:butt;stroke-linejoin:miter;stroke-opacity:1;stroke-miterlimit:4;stroke-dasharray:2,2;stroke-dashoffset:0" />
    <g
       ns0:preamble=""
       ns0:text="$\\alpha$"
       word-spacing="normal"
       letter-spacing="normal"
       font-size-adjust="none"
       font-stretch="normal"
       font-weight="normal"
       font-variant="normal"
       font-style="normal"
       stroke-miterlimit="10.433"
       xml:space="preserve"
       transform="matrix(1.3333304,0,0,-1.3333304,-140.63675,1253.3616)"
       id="g5026"
       style="font-style:normal;font-variant:normal;font-weight:normal;font-stretch:normal;letter-spacing:normal;word-spacing:normal;text-anchor:start;fill:none;fill-opacity:1;fill-rule:evenodd;stroke:#000000;stroke-linecap:butt;stroke-linejoin:miter;stroke-miterlimit:10.43299961;stroke-dasharray:none;stroke-dashoffset:0;stroke-opacity:1">
<path
   id="path5028"
   d="m 228.19,709.47 0,0.08 -0.01,0.07 0,0.07 0,0.06 -0.02,0.14 -0.01,0.12 -0.03,0.12 -0.02,0.11 -0.03,0.11 -0.04,0.1 -0.04,0.1 -0.04,0.09 -0.05,0.09 -0.05,0.08 -0.05,0.08 -0.05,0.07 -0.06,0.06 -0.06,0.06 -0.06,0.06 -0.06,0.05 -0.07,0.05 -0.07,0.05 -0.07,0.04 -0.06,0.03 -0.08,0.04 -0.07,0.02 -0.07,0.03 -0.07,0.02 -0.07,0.02 -0.07,0.01 -0.08,0.01 -0.07,0.01 -0.07,0 -0.07,0 c -1.36,0 -2.68,-1.42 -2.68,-2.82 0,-0.93 0.6,-1.68 1.62,-1.68 l 0.02,0.21 c -0.6,0 -0.9,0.45 -0.9,1.09 0,0.49 0.26,1.56 0.58,2.07 0.47,0.73 1,0.91 1.35,0.91 0.99,0 0.99,-1.3 0.99,-2.08 0,-0.36 0,-0.94 0.02,-1.11 l 0,0 c -0.88,-0.77 -1.65,-0.88 -2.04,-0.88 l -0.02,-0.21 c 0.62,0 1.34,0.22 2.1,0.83 0.13,-0.53 0.46,-0.83 0.91,-0.83 0.52,0 0.83,0.54 0.83,0.7 0,0.07 -0.06,0.1 -0.12,0.1 -0.07,0 -0.1,-0.03 -0.13,-0.1 -0.17,-0.49 -0.53,-0.49 -0.55,-0.49 -0.31,0 -0.31,0.78 -0.31,1.02 0,0.21 0,0.23 0.1,0.35 0.93,1.17 1.14,2.33 1.14,2.34 0,0.02 -0.01,0.1 -0.12,0.1 -0.1,0 -0.1,-0.03 -0.15,-0.21 -0.18,-0.63 -0.51,-1.39 -0.97,-1.97 z"
   inkscape:connector-curvature="0"
   style="fill:#000000;stroke-width:0" />
</g>    <g
       style="font-style:normal;font-variant:normal;font-weight:normal;font-stretch:normal;letter-spacing:normal;word-spacing:normal;text-anchor:start;fill:none;fill-opacity:1;fill-rule:evenodd;stroke:#000000;stroke-linecap:butt;stroke-linejoin:miter;stroke-miterlimit:10.43299961;stroke-dasharray:none;stroke-dashoffset:0;stroke-opacity:1"
       id="g5126"
       transform="matrix(1.2276772,0,0,-1.2276772,-124.18587,1169.2695)"
       xml:space="preserve"
       stroke-miterlimit="10.433"
       font-style="normal"
       font-variant="normal"
       font-weight="normal"
       font-stretch="normal"
       font-size-adjust="none"
       letter-spacing="normal"
       word-spacing="normal"
       ns0:text="$\\beta$"
       ns0:preamble="">
<path
   style="fill:#000000;stroke-width:0"
   inkscape:connector-curvature="0"
   d="m 229.16,712.79 0,0.07 0,0.07 -0.01,0.06 -0.01,0.07 -0.02,0.07 -0.01,0.06 -0.02,0.06 -0.02,0.07 -0.03,0.06 -0.03,0.05 -0.03,0.06 -0.03,0.06 -0.04,0.05 -0.04,0.05 -0.04,0.05 -0.04,0.05 -0.05,0.04 -0.04,0.05 -0.06,0.04 -0.05,0.04 -0.05,0.03 -0.06,0.04 -0.06,0.03 -0.06,0.02 -0.06,0.03 -0.07,0.02 -0.06,0.02 -0.07,0.01 -0.07,0.02 -0.07,0 -0.08,0.01 -0.07,0 c -0.58,0 -0.86,-0.16 -1.21,-0.42 -0.55,-0.39 -1.09,-1.36 -1.28,-2.12 l -1.59,-6.32 c -0.01,-0.04 0.04,-0.1 0.12,-0.1 0.08,0 0.11,0.02 0.12,0.05 l 0.7,2.75 c 0.19,-0.6 0.63,-0.96 1.35,-0.96 l -0.03,0.21 c -0.75,0 -1.13,0.58 -1.13,1.29 0,0.1 0,0.25 0.05,0.44 l 0.63,2.51 c 0.22,0.86 0.94,2.44 2.14,2.44 0.58,0 0.93,-0.31 0.93,-0.9 l 0,0 c 0,-0.7 -0.38,-1.42 -0.9,-1.73 -0.27,0.11 -0.47,0.12 -0.77,0.12 -0.21,0 -0.77,0.01 -0.77,-0.31 -0.01,-0.28 0.51,-0.25 0.69,-0.25 l 0.03,0.22 c -0.14,0 -0.34,-0.01 -0.44,0.04 0.02,0.1 0.38,0.08 0.49,0.08 0.21,0 0.3,0 0.43,-0.05 l 0,0 c -0.13,-0.05 -0.24,-0.07 -0.48,-0.07 l -0.03,-0.22 c 0.37,0 0.52,0.01 0.82,0.13 0.38,-0.36 0.43,-0.67 0.44,-1.13 0.02,-0.57 -0.22,-1.32 -0.5,-1.71 -0.39,-0.54 -1.06,-0.9 -1.63,-0.9 l 0.03,-0.21 c 0.73,0 1.48,0.34 1.93,0.78 0.48,0.46 0.79,1.1 0.79,1.83 0,0.72 -0.36,1.24 -0.72,1.49 0.58,0.32 1.14,0.94 1.14,1.66 z"
   id="path5128" />
</g>    <g
       ns0:preamble=""
       ns0:text="$\\gamma$"
       word-spacing="normal"
       letter-spacing="normal"
       font-size-adjust="none"
       font-stretch="normal"
       font-weight="normal"
       font-variant="normal"
       font-style="normal"
       stroke-miterlimit="10.433"
       xml:space="preserve"
       transform="matrix(1.2232397,0,0,-1.2232397,49.023382,1171.6607)"
       id="g5230"
       style="font-style:normal;font-variant:normal;font-weight:normal;font-stretch:normal;letter-spacing:normal;word-spacing:normal;text-anchor:start;fill:none;fill-opacity:1;fill-rule:evenodd;stroke:#000000;stroke-linecap:butt;stroke-linejoin:miter;stroke-miterlimit:10.43299961;stroke-dasharray:none;stroke-dashoffset:0;stroke-opacity:1">
<path
   id="path5232"
   d="m 223.84,709.65 0.02,0.06 0.02,0.05 0.02,0.05 0.02,0.04 0.02,0.05 0.03,0.05 0.02,0.04 0.03,0.04 0.02,0.04 0.03,0.04 0.02,0.04 0.03,0.03 0.06,0.07 0.06,0.07 0.06,0.05 0.06,0.06 0.06,0.05 0.06,0.04 0.07,0.04 0.06,0.04 0.06,0.03 0.07,0.03 0.06,0.02 0.06,0.03 0.06,0.02 0.06,0.01 0.05,0.02 0.06,0.01 0.05,0.01 0.05,0.01 0.04,0 0.04,0.01 0.04,0 0.03,0 0.03,0.01 0.02,0 0.02,0 0.02,0 c 1.5,0 1.61,-1.74 1.61,-2.53 0,-0.61 -0.05,-0.78 -0.12,-0.98 -0.22,-0.72 -0.52,-1.88 -0.52,-2.14 0,-0.11 0.05,-0.18 0.13,-0.18 0.13,0 0.21,0.22 0.32,0.6 0.23,0.84 0.33,1.41 0.37,1.71 0.02,0.13 0.04,0.26 0.08,0.39 0.32,0.99 0.96,2.47 1.35,3.26 0.08,0.12 0.2,0.34 0.2,0.38 0,0.09 -0.11,0.09 -0.12,0.09 -0.03,0 -0.1,0 -0.12,-0.07 -0.52,-0.94 -0.92,-1.94 -1.32,-2.94 -0.01,0.31 -0.02,1.06 -0.41,2.03 -0.24,0.61 -0.64,1.09 -1.33,1.09 -1.24,0 -1.94,-1.51 -1.94,-1.82 0,-0.1 0.09,-0.1 0.19,-0.1 z"
   inkscape:connector-curvature="0"
   style="fill:#000000;stroke-width:0" />
</g>    <path
       style="fill:none;fill-rule:evenodd;stroke:#000000;stroke-width:1px;stroke-linecap:butt;stroke-linejoin:miter;stroke-opacity:1"
       d="m 145,302.36218 c 7,1 7,7 7,10"
       id="path5285"
       inkscape:connector-curvature="0"
       sodipodi:nodetypes="cc" />
    <path
       style="fill:none;fill-rule:evenodd;stroke:#000000;stroke-width:1px;stroke-linecap:butt;stroke-linejoin:miter;stroke-opacity:1"
       d="m 155,305.36218 c 1,1 2,4 2,7"
       id="path5287"
       inkscape:connector-curvature="0"
       sodipodi:nodetypes="cc" />
    <path
       style="fill:none;fill-rule:evenodd;stroke:#000000;stroke-width:1px;stroke-linecap:butt;stroke-linejoin:miter;stroke-opacity:1"
       d="m 315,307.36218 c 3,-2 9,0 10,5"
       id="path5289"
       inkscape:connector-curvature="0"
       sodipodi:nodetypes="cc" />
    <g
       style="font-style:normal;font-variant:normal;font-weight:normal;font-stretch:normal;letter-spacing:normal;word-spacing:normal;text-anchor:start;fill:none;fill-opacity:1;fill-rule:evenodd;stroke:#000000;stroke-linecap:butt;stroke-linejoin:miter;stroke-miterlimit:10.43299961;stroke-dasharray:none;stroke-dashoffset:0;stroke-opacity:1"
       ns0:preamble=""
       ns0:text="$M_{j+1}$"
       word-spacing="normal"
       letter-spacing="normal"
       font-size-adjust="none"
       font-stretch="normal"
       font-weight="normal"
       font-variant="normal"
       font-style="normal"
       stroke-miterlimit="10.433"
       xml:space="preserve"
       transform="matrix(1.3388246,0,0,-1.3388246,-124.39588,1196.3759)"
       id="g5412">
<path
   id="path5414"
   d="m 232.66,713.16 0.01,0.03 0.01,0.03 0.01,0.03 0,0.03 0.01,0.03 0.01,0.02 0.01,0.03 0.01,0.02 0.01,0.02 0.01,0.02 0.01,0.02 0.02,0.02 0.01,0.02 0.02,0.01 0.01,0.02 0.02,0.01 0.03,0.01 0.02,0.01 0.03,0.01 0.02,0.01 0.03,0.01 0.02,0.01 0.02,0 0.02,0 0.01,0.01 0.02,0 0.02,0 0.02,0.01 0.03,0 0.02,0 0.02,0 0.02,0 0.03,0.01 0.03,0 0.02,0 0.03,0 0.03,0 0.03,0 0.03,0 0.03,0 0.03,0 0.04,0 0.03,0 c 0.23,0 0.32,0 0.32,0.2 0,0.11 -0.1,0.11 -0.27,0.11 l -1.32,0 c -0.26,0 -0.26,0 -0.38,-0.19 l -3.64,-5.67 -0.78,5.63 c -0.03,0.23 -0.05,0.23 -0.31,0.23 l -1.37,0 c -0.18,0 -0.29,0 -0.29,-0.19 0,-0.12 0.09,-0.12 0.28,-0.12 0.13,0 0.31,-0.01 0.43,-0.02 0.16,-0.02 0.22,-0.05 0.22,-0.16 0,-0.03 -0.01,-0.07 -0.04,-0.18 l -1.26,-5.07 c -0.1,-0.4 -0.27,-0.72 -1.08,-0.75 -0.05,0 -0.18,-0.01 -0.18,-0.19 0,-0.08 0.06,-0.11 0.14,-0.11 0.32,0 0.67,0.03 1,0.03 0.34,0 0.69,-0.03 1.02,-0.03 0.05,0 0.18,0 0.18,0.19 0,0.11 -0.11,0.11 -0.18,0.11 -0.56,0.01 -0.67,0.21 -0.67,0.44 0,0.07 0.01,0.12 0.04,0.23 l 1.35,5.42 0.01,0 0.86,-6.17 c 0.02,-0.12 0.03,-0.22 0.15,-0.22 0.11,0 0.17,0.1 0.22,0.17 l 4.02,6.3 0.02,0 -1.43,-5.7 c -0.1,-0.39 -0.12,-0.47 -0.91,-0.47 -0.17,0 -0.28,0 -0.28,-0.19 0,-0.11 0.12,-0.11 0.15,-0.11 0.28,0 0.96,0.03 1.24,0.03 0.41,0 0.84,-0.03 1.24,-0.03 0.07,0 0.19,0 0.19,0.19 0,0.11 -0.09,0.11 -0.28,0.11 -0.36,0 -0.64,0 -0.64,0.18 0,0.04 0,0.06 0.05,0.24 z"
   inkscape:connector-curvature="0"
   style="fill:#000000;stroke-width:0" />
<path
   id="path5416"
   d="m 236.15,709.98 0,0.01 0,0.01 0,0.01 0,0.01 0,0.01 -0.01,0.02 0,0.01 0,0.01 -0.01,0.01 0,0.01 -0.01,0.01 0,0.01 -0.01,0.01 -0.01,0.01 -0.01,0.01 0,0.01 -0.01,0.01 -0.01,0.01 -0.01,0.01 -0.01,0.01 -0.01,0.01 -0.02,0 -0.01,0.01 -0.01,0.01 -0.01,0 -0.02,0.01 -0.01,0 -0.02,0 -0.01,0.01 -0.02,0 -0.02,0 -0.01,0 c -0.21,0 -0.39,-0.19 -0.39,-0.38 0,-0.11 0.08,-0.27 0.27,-0.27 0.19,0 0.39,0.19 0.39,0.39 z"
   inkscape:connector-curvature="0"
   style="fill:#000000;stroke-width:0" />
<path
   id="path5418"
   d="m 234.68,705.29 -0.01,-0.04 -0.02,-0.05 -0.01,-0.04 -0.02,-0.05 -0.01,-0.04 -0.02,-0.04 -0.02,-0.04 -0.02,-0.04 -0.03,-0.04 -0.02,-0.04 -0.02,-0.03 -0.03,-0.04 -0.03,-0.04 -0.02,-0.03 -0.03,-0.03 -0.03,-0.03 -0.03,-0.03 -0.03,-0.03 -0.03,-0.03 -0.04,-0.02 -0.03,-0.02 -0.03,-0.02 -0.04,-0.02 -0.03,-0.02 -0.04,-0.02 -0.03,-0.01 -0.04,-0.01 -0.04,-0.01 -0.04,-0.01 -0.03,-0.01 -0.04,0 -0.04,0 c -0.09,0 -0.18,0.01 -0.25,0.04 0.18,0.08 0.24,0.25 0.24,0.35 0,0.17 -0.14,0.26 -0.28,0.26 -0.21,0 -0.39,-0.19 -0.39,-0.41 0,-0.26 0.27,-0.44 0.69,-0.44 0.41,0 1.23,0.25 1.45,1.1 l 0.62,2.49 c 0.02,0.08 0.04,0.14 0.04,0.24 0,0.39 -0.33,0.66 -0.75,0.66 -0.77,0 -1.22,-0.97 -1.22,-1.07 0,-0.09 0.1,-0.09 0.12,-0.09 0.08,0 0.09,0.02 0.14,0.13 0.18,0.4 0.54,0.83 0.94,0.83 0.17,0 0.24,-0.11 0.24,-0.34 0,-0.07 -0.02,-0.17 -0.02,-0.21 z"
   inkscape:connector-curvature="0"
   style="fill:#000000;stroke-width:0" />
<path
   id="path5420"
   d="m 240.02,707.2 2.13,0 c 0.09,0 0.26,0 0.26,0.17 0,0.17 -0.16,0.17 -0.26,0.17 l -2.13,0 0,2.14 c 0,0.09 0,0.25 -0.17,0.25 -0.17,0 -0.17,-0.15 -0.17,-0.25 l 0,-2.14 -2.14,0 c -0.09,0 -0.25,0 -0.25,-0.16 0,-0.18 0.16,-0.18 0.25,-0.18 l 2.14,0 0,-2.13 c 0,-0.09 0,-0.26 0.17,-0.26 0.17,0 0.17,0.16 0.17,0.26 z"
   inkscape:connector-curvature="0"
   style="fill:#000000;stroke-width:0" />
<path
   id="path5422"
   d="m 245.25,710.05 0,0.01 0,0.01 0,0.01 0,0.01 0,0 0,0.01 0,0.01 0,0.01 -0.01,0 0,0.01 0,0 0,0.01 0,0.01 0,0 0,0.01 0,0 0,0.01 0,0 0,0.01 -0.01,0.01 0,0.01 0,0 -0.01,0.01 0,0.01 -0.01,0 0,0.01 -0.01,0 0,0 -0.01,0.01 -0.01,0 -0.01,0 -0.01,0 0,0 -0.01,0 0,0 -0.01,0.01 -0.01,0 0,0 -0.01,0 0,0 -0.01,0 -0.01,0 -0.01,0 0,0 -0.01,0 -0.01,0 -0.01,0 -0.01,0 0,0 -0.01,0 c -0.45,-0.44 -1.08,-0.45 -1.37,-0.45 l 0,-0.25 c 0.17,0 0.63,0 1.01,0.2 l 0,-3.55 c 0,-0.23 0,-0.32 -0.69,-0.32 l -0.27,0 0,-0.25 c 0.13,0.01 0.98,0.03 1.24,0.03 0.22,0 1.09,-0.02 1.25,-0.03 l 0,0.25 -0.27,0 c -0.69,0 -0.69,0.09 -0.69,0.32 z"
   inkscape:connector-curvature="0"
   style="fill:#000000;stroke-width:0" />
</g>    <g
       style="font-style:normal;font-variant:normal;font-weight:normal;font-stretch:normal;letter-spacing:normal;word-spacing:normal;text-anchor:start;fill:none;fill-opacity:1;fill-rule:evenodd;stroke:#000000;stroke-linecap:butt;stroke-linejoin:miter;stroke-miterlimit:10.43299961;stroke-dasharray:none;stroke-dashoffset:0;stroke-opacity:1"
       id="g5508"
       transform="matrix(1.3388246,0,0,-1.3388246,-86.19588,1231.3759)"
       xml:space="preserve"
       stroke-miterlimit="10.433"
       font-style="normal"
       font-variant="normal"
       font-weight="normal"
       font-stretch="normal"
       font-size-adjust="none"
       letter-spacing="normal"
       word-spacing="normal"
       ns0:text="$M_{j}$"
       ns0:preamble="">
<path
   style="fill:#000000;stroke-width:0"
   inkscape:connector-curvature="0"
   d="m 232.66,713.16 0.01,0.03 0.01,0.03 0.01,0.03 0,0.03 0.01,0.03 0.01,0.02 0.01,0.03 0.01,0.02 0.01,0.02 0.01,0.02 0.01,0.02 0.02,0.02 0.01,0.02 0.02,0.01 0.01,0.02 0.02,0.01 0.03,0.01 0.02,0.01 0.03,0.01 0.02,0.01 0.03,0.01 0.02,0.01 0.02,0 0.02,0 0.01,0.01 0.02,0 0.02,0 0.02,0.01 0.03,0 0.02,0 0.02,0 0.02,0 0.03,0.01 0.03,0 0.02,0 0.03,0 0.03,0 0.03,0 0.03,0 0.03,0 0.03,0 0.04,0 0.03,0 c 0.23,0 0.32,0 0.32,0.2 0,0.11 -0.1,0.11 -0.27,0.11 l -1.32,0 c -0.26,0 -0.26,0 -0.38,-0.19 l -3.64,-5.67 -0.78,5.63 c -0.03,0.23 -0.05,0.23 -0.31,0.23 l -1.37,0 c -0.18,0 -0.29,0 -0.29,-0.19 0,-0.12 0.09,-0.12 0.28,-0.12 0.13,0 0.31,-0.01 0.43,-0.02 0.16,-0.02 0.22,-0.05 0.22,-0.16 0,-0.03 -0.01,-0.07 -0.04,-0.18 l -1.26,-5.07 c -0.1,-0.4 -0.27,-0.72 -1.08,-0.75 -0.05,0 -0.18,-0.01 -0.18,-0.19 0,-0.08 0.06,-0.11 0.14,-0.11 0.32,0 0.67,0.03 1,0.03 0.34,0 0.69,-0.03 1.02,-0.03 0.05,0 0.18,0 0.18,0.19 0,0.11 -0.11,0.11 -0.18,0.11 -0.56,0.01 -0.67,0.21 -0.67,0.44 0,0.07 0.01,0.12 0.04,0.23 l 1.35,5.42 0.01,0 0.86,-6.17 c 0.02,-0.12 0.03,-0.22 0.15,-0.22 0.11,0 0.17,0.1 0.22,0.17 l 4.02,6.3 0.02,0 -1.43,-5.7 c -0.1,-0.39 -0.12,-0.47 -0.91,-0.47 -0.17,0 -0.28,0 -0.28,-0.19 0,-0.11 0.12,-0.11 0.15,-0.11 0.28,0 0.96,0.03 1.24,0.03 0.41,0 0.84,-0.03 1.24,-0.03 0.07,0 0.19,0 0.19,0.19 0,0.11 -0.09,0.11 -0.28,0.11 -0.36,0 -0.64,0 -0.64,0.18 0,0.04 0,0.06 0.05,0.24 z"
   id="path5510" />
<path
   style="fill:#000000;stroke-width:0"
   inkscape:connector-curvature="0"
   d="m 236.15,709.98 0,0.01 0,0.01 0,0.01 0,0.01 0,0.01 -0.01,0.02 0,0.01 0,0.01 -0.01,0.01 0,0.01 -0.01,0.01 0,0.01 -0.01,0.01 -0.01,0.01 -0.01,0.01 0,0.01 -0.01,0.01 -0.01,0.01 -0.01,0.01 -0.01,0.01 -0.01,0.01 -0.02,0 -0.01,0.01 -0.01,0.01 -0.01,0 -0.02,0.01 -0.01,0 -0.02,0 -0.01,0.01 -0.02,0 -0.02,0 -0.01,0 c -0.21,0 -0.39,-0.19 -0.39,-0.38 0,-0.11 0.08,-0.27 0.27,-0.27 0.19,0 0.39,0.19 0.39,0.39 z"
   id="path5512" />
<path
   style="fill:#000000;stroke-width:0"
   inkscape:connector-curvature="0"
   d="m 234.68,705.29 -0.01,-0.04 -0.02,-0.05 -0.01,-0.04 -0.02,-0.05 -0.01,-0.04 -0.02,-0.04 -0.02,-0.04 -0.02,-0.04 -0.03,-0.04 -0.02,-0.04 -0.02,-0.03 -0.03,-0.04 -0.03,-0.04 -0.02,-0.03 -0.03,-0.03 -0.03,-0.03 -0.03,-0.03 -0.03,-0.03 -0.03,-0.03 -0.04,-0.02 -0.03,-0.02 -0.03,-0.02 -0.04,-0.02 -0.03,-0.02 -0.04,-0.02 -0.03,-0.01 -0.04,-0.01 -0.04,-0.01 -0.04,-0.01 -0.03,-0.01 -0.04,0 -0.04,0 c -0.09,0 -0.18,0.01 -0.25,0.04 0.18,0.08 0.24,0.25 0.24,0.35 0,0.17 -0.14,0.26 -0.28,0.26 -0.21,0 -0.39,-0.19 -0.39,-0.41 0,-0.26 0.27,-0.44 0.69,-0.44 0.41,0 1.23,0.25 1.45,1.1 l 0.62,2.49 c 0.02,0.08 0.04,0.14 0.04,0.24 0,0.39 -0.33,0.66 -0.75,0.66 -0.77,0 -1.22,-0.97 -1.22,-1.07 0,-0.09 0.1,-0.09 0.12,-0.09 0.08,0 0.09,0.02 0.14,0.13 0.18,0.4 0.54,0.83 0.94,0.83 0.17,0 0.24,-0.11 0.24,-0.34 0,-0.07 -0.02,-0.17 -0.02,-0.21 z"
   id="path5514" />
</g>    <g
       ns0:preamble=""
       ns0:text="$M_{b}$"
       word-spacing="normal"
       letter-spacing="normal"
       font-size-adjust="none"
       font-stretch="normal"
       font-weight="normal"
       font-variant="normal"
       font-style="normal"
       stroke-miterlimit="10.433"
       xml:space="preserve"
       transform="matrix(1.4354338,0,0,-1.435405,-90.821851,1237.2265)"
       id="g5614"
       style="font-style:normal;font-variant:normal;font-weight:normal;font-stretch:normal;letter-spacing:normal;word-spacing:normal;text-anchor:start;fill:none;fill-opacity:1;fill-rule:evenodd;stroke:#000000;stroke-linecap:butt;stroke-linejoin:miter;stroke-miterlimit:10.43299961;stroke-dasharray:none;stroke-dashoffset:0;stroke-opacity:1">
<path
   id="path5616"
   d="m 232.66,713.16 0.01,0.03 0.01,0.03 0.01,0.03 0,0.03 0.01,0.03 0.01,0.02 0.01,0.03 0.01,0.02 0.01,0.02 0.01,0.02 0.01,0.02 0.02,0.02 0.01,0.02 0.02,0.01 0.01,0.02 0.02,0.01 0.03,0.01 0.02,0.01 0.03,0.01 0.02,0.01 0.03,0.01 0.02,0.01 0.02,0 0.02,0 0.01,0.01 0.02,0 0.02,0 0.02,0.01 0.03,0 0.02,0 0.02,0 0.02,0 0.03,0.01 0.03,0 0.02,0 0.03,0 0.03,0 0.03,0 0.03,0 0.03,0 0.03,0 0.04,0 0.03,0 c 0.23,0 0.32,0 0.32,0.2 0,0.11 -0.1,0.11 -0.27,0.11 l -1.32,0 c -0.26,0 -0.26,0 -0.38,-0.19 l -3.64,-5.67 -0.78,5.63 c -0.03,0.23 -0.05,0.23 -0.31,0.23 l -1.37,0 c -0.18,0 -0.29,0 -0.29,-0.19 0,-0.12 0.09,-0.12 0.28,-0.12 0.13,0 0.31,-0.01 0.43,-0.02 0.16,-0.02 0.22,-0.05 0.22,-0.16 0,-0.03 -0.01,-0.07 -0.04,-0.18 l -1.26,-5.07 c -0.1,-0.4 -0.27,-0.72 -1.08,-0.75 -0.05,0 -0.18,-0.01 -0.18,-0.19 0,-0.08 0.06,-0.11 0.14,-0.11 0.32,0 0.67,0.03 1,0.03 0.34,0 0.69,-0.03 1.02,-0.03 0.05,0 0.18,0 0.18,0.19 0,0.11 -0.11,0.11 -0.18,0.11 -0.56,0.01 -0.67,0.21 -0.67,0.44 0,0.07 0.01,0.12 0.04,0.23 l 1.35,5.42 0.01,0 0.86,-6.17 c 0.02,-0.12 0.03,-0.22 0.15,-0.22 0.11,0 0.17,0.1 0.22,0.17 l 4.02,6.3 0.02,0 -1.43,-5.7 c -0.1,-0.39 -0.12,-0.47 -0.91,-0.47 -0.17,0 -0.28,0 -0.28,-0.19 0,-0.11 0.12,-0.11 0.15,-0.11 0.28,0 0.96,0.03 1.24,0.03 0.41,0 0.84,-0.03 1.24,-0.03 0.07,0 0.19,0 0.19,0.19 0,0.11 -0.09,0.11 -0.28,0.11 -0.36,0 -0.64,0 -0.64,0.18 0,0.04 0,0.06 0.05,0.24 z"
   inkscape:connector-curvature="0"
   style="fill:#000000;stroke-width:0" />
<path
   id="path5618"
   d="m 234.94,710.25 0,0 0,0 0,0 0,0 0,0 0,0 0,0.01 0,0 0,0 0,0 0,0.01 0,0 0,0 0.01,0.01 0,0 0,0.01 0,0 0,0.01 0,0.01 0,0.01 0.01,0 0,0 0,0.01 0,0 0,0.01 0,0 0,0 0,0.01 0,0 0,0 0,0 0,0 0,0 0,0 0,0.01 0,0 0,0 0,0 0,0 0,0 c 0,0.03 -0.02,0.1 -0.11,0.1 -0.14,0 -0.72,-0.06 -0.89,-0.07 -0.06,-0.01 -0.15,-0.02 -0.15,-0.16 0,-0.1 0.09,-0.1 0.18,-0.1 0.33,0 0.33,-0.05 0.33,-0.1 0,-0.05 -0.07,-0.33 -0.11,-0.49 l -0.16,-0.64 c -0.06,-0.24 -0.45,-1.76 -0.46,-1.85 -0.03,-0.17 -0.03,-0.26 -0.03,-0.34 0,-0.7 0.44,-1.15 1.02,-1.15 l 0.01,0.2 c -0.34,0 -0.54,0.29 -0.54,0.71 0,0.25 0.06,0.49 0.26,1.27 0.04,0.14 0.04,0.15 0.17,0.3 0.27,0.31 0.58,0.46 0.83,0.46 0.27,0 0.51,-0.2 0.51,-0.67 0,-0.29 -0.15,-1 -0.36,-1.4 -0.17,-0.34 -0.52,-0.67 -0.87,-0.67 l 0,0 -0.01,-0.2 c 0.87,0 1.8,0.95 1.8,1.98 0,0.81 -0.57,1.16 -1.05,1.16 -0.36,0 -0.67,-0.2 -0.87,-0.38 z"
   inkscape:connector-curvature="0"
   style="fill:#000000;stroke-width:0" />
</g>  </g>
</svg>
